<svg width="667" height="667" viewBox="0 0 667 667" fill="none" xmlns="http://www.w3.org/2000/svg">
<g clip-path="url(#clip0_1_2)">
<path d="M555.705 531.659H599.868V531.327H555.705V531.659Z" fill="#ECECEC"/>
<path d="M430.036 535.277H441.628V534.944H430.036V535.277Z" fill="#ECECEC"/>
<path d="M528.781 519.277H554.371V518.944H528.781V519.277Z" fill="#ECECEC"/>
<path d="M69.9453 521.519H127.537V521.185H69.9453V521.519Z" fill="#ECECEC"/>
<path d="M139.408 521.519H147.852V521.185H139.408V521.519Z" fill="#ECECEC"/>
<path d="M175.295 527.148H300.196V526.815H175.295V527.148Z" fill="#ECECEC"/>
<path d="M60.4032 73.6035C56.3899 73.6035 53.1259 76.8675 53.1259 80.8809V442.789C53.1259 446.802 56.3899 450.066 60.4032 450.066H317.869C321.879 450.066 325.145 446.802 325.145 442.789V80.8809C325.145 76.8675 321.879 73.6035 317.869 73.6035H60.4032ZM317.869 450.399H60.4032C56.2072 450.399 52.7925 446.986 52.7925 442.789V80.8809C52.7925 76.6849 56.2072 73.2702 60.4032 73.2702H317.869C322.063 73.2702 325.478 76.6849 325.478 80.8809V442.789C325.478 446.986 322.063 450.399 317.869 450.399" fill="#ECECEC"/>
<path d="M348.799 73.6035C344.787 73.6035 341.523 76.8675 341.523 80.8809V442.789C341.523 446.802 344.787 450.066 348.799 450.066H606.263C610.276 450.066 613.542 446.802 613.542 442.789V80.8809C613.542 76.8675 610.276 73.6035 606.263 73.6035H348.799ZM606.263 450.399H348.799C344.604 450.399 341.19 446.986 341.19 442.789V80.8809C341.19 76.6849 344.604 73.2702 348.799 73.2702H606.263C610.46 73.2702 613.875 76.6849 613.875 80.8809V442.789C613.875 446.986 610.46 450.399 606.263 450.399" fill="#ECECEC"/>
<path d="M666.667 510.197H0V509.864H666.667V510.197Z" fill="#ECECEC"/>
<path d="M264.228 116.571H265.536V77.8093H264.228V116.571Z" fill="#E7E7E7"/>
<path d="M306.3 138.11L264.882 113.079L223.464 138.11H306.3Z" fill="#E7E7E7"/>
<path d="M262.023 138.11L264.882 113.079L246.264 138.11H262.023Z" fill="#FAFAFA"/>
<path d="M296.952 510.857H76.2386V162.268H296.952V510.857Z" fill="#F5F5F5"/>
<path d="M287.757 246.255H84.7147V171.555H287.757V246.255Z" fill="#E1E1E1"/>
<path d="M283.142 245.85H90.4821L107.21 179.37H266.414L283.142 245.85Z" fill="#ECECEC"/>
<path d="M113.483 219.149L122.541 181.397H150.137L145.187 219.249L113.483 219.149Z" fill="#F5F5F5"/>
<path d="M185.019 219.233L153.315 219.2L157.704 181.414H185.299L185.019 219.233Z" fill="#F5F5F5"/>
<path d="M221.582 219.199L189.878 219.233L189.598 181.414H217.193L221.582 219.199Z" fill="#F5F5F5"/>
<path d="M261.414 219.149L252.356 181.397H224.76L229.71 219.249L261.414 219.149Z" fill="#F5F5F5"/>
<path d="M104.735 242.829L114.531 201.899H144.371L139.017 242.939L104.735 242.829Z" fill="#FAFAFA"/>
<path d="M183.401 242.921L149.119 242.885L153.865 201.918H183.705L183.401 242.921Z" fill="#FAFAFA"/>
<path d="M225.563 242.884L191.282 242.92L190.978 201.917H220.817L225.563 242.884Z" fill="#FAFAFA"/>
<path d="M269.947 242.829L260.151 201.899H230.311L235.665 242.939L269.947 242.829Z" fill="#FAFAFA"/>
<path d="M287.737 245.945H84.696V235.411H287.737V245.945Z" fill="#FAFAFA"/>
<path d="M128.031 240.74H114.132V232.383H128.031V240.74Z" fill="white"/>
<path d="M171.861 240.74H157.963V232.383H171.861V240.74Z" fill="white"/>
<path d="M215.692 240.74H201.793V232.383H215.692V240.74Z" fill="white"/>
<path d="M259.523 240.74H245.624V232.383H259.523V240.74Z" fill="white"/>
<path d="M287.757 333.235H84.7147V258.535H287.757V333.235Z" fill="#E1E1E1"/>
<path d="M283.142 332.828H90.4821L107.21 266.348H266.414L283.142 332.828Z" fill="#ECECEC"/>
<path d="M113.483 306.128L122.541 268.376H150.137L145.187 306.229L113.483 306.128Z" fill="#F5F5F5"/>
<path d="M185.019 306.212L153.315 306.178L157.704 268.393H185.299L185.019 306.212Z" fill="#F5F5F5"/>
<path d="M221.582 306.178L189.878 306.211L189.598 268.392H217.193L221.582 306.178Z" fill="#F5F5F5"/>
<path d="M261.414 306.128L252.356 268.376H224.76L229.71 306.229L261.414 306.128Z" fill="#F5F5F5"/>
<path d="M104.735 329.809L114.531 288.878H144.371L139.017 329.917L104.735 329.809Z" fill="#FAFAFA"/>
<path d="M183.401 329.9L149.119 329.864L153.865 288.896H183.705L183.401 329.9Z" fill="#FAFAFA"/>
<path d="M225.563 329.863L191.282 329.899L190.978 288.895H220.817L225.563 329.863Z" fill="#FAFAFA"/>
<path d="M269.947 329.809L260.151 288.878H230.311L235.665 329.917L269.947 329.809Z" fill="#FAFAFA"/>
<path d="M287.737 332.924H84.696V322.389H287.737V332.924Z" fill="#FAFAFA"/>
<path d="M128.031 327.719H114.132V319.361H128.031V327.719Z" fill="white"/>
<path d="M171.861 327.719H157.963V319.361H171.861V327.719Z" fill="white"/>
<path d="M215.692 327.719H201.793V319.361H215.692V327.719Z" fill="white"/>
<path d="M259.523 327.719H245.624V319.361H259.523V327.719Z" fill="white"/>
<path d="M287.757 420.212H84.7147V345.513H287.757V420.212Z" fill="#E1E1E1"/>
<path d="M283.142 419.807H90.4821L107.21 353.327H266.414L283.142 419.807Z" fill="#ECECEC"/>
<path d="M113.483 393.107L122.541 355.355H150.137L145.187 393.207L113.483 393.107Z" fill="#F5F5F5"/>
<path d="M185.019 393.19L153.315 393.157L157.704 355.371H185.299L185.019 393.19Z" fill="#F5F5F5"/>
<path d="M221.582 393.156L189.878 393.19L189.598 355.371H217.193L221.582 393.156Z" fill="#F5F5F5"/>
<path d="M261.414 393.107L252.356 355.355H224.76L229.71 393.207L261.414 393.107Z" fill="#F5F5F5"/>
<path d="M104.735 416.788L114.531 375.857H144.371L139.017 416.896L104.735 416.788Z" fill="#FAFAFA"/>
<path d="M183.401 416.878L149.119 416.842L153.865 375.875H183.705L183.401 416.878Z" fill="#FAFAFA"/>
<path d="M225.563 416.841L191.282 416.877L190.978 375.875H220.817L225.563 416.841Z" fill="#FAFAFA"/>
<path d="M269.947 416.788L260.151 375.857H230.311L235.665 416.896L269.947 416.788Z" fill="#FAFAFA"/>
<path d="M287.737 419.904H84.696V409.369H287.737V419.904Z" fill="#FAFAFA"/>
<path d="M128.031 414.696H114.132V406.339H128.031V414.696Z" fill="white"/>
<path d="M171.861 414.696H157.963V406.339H171.861V414.696Z" fill="white"/>
<path d="M215.692 414.696H201.793V406.339H215.692V414.696Z" fill="white"/>
<path d="M259.523 414.696H245.624V406.339H259.523V414.696Z" fill="white"/>
<path d="M287.757 507.192H84.7147V432.492H287.757V507.192Z" fill="#E1E1E1"/>
<path d="M283.142 506.785H90.4821L107.21 440.307H266.414L283.142 506.785Z" fill="#ECECEC"/>
<path d="M113.483 480.086L122.541 442.334H150.137L145.187 480.186L113.483 480.086Z" fill="#F5F5F5"/>
<path d="M185.019 480.169L153.315 480.136L157.704 442.351H185.299L185.019 480.169Z" fill="#F5F5F5"/>
<path d="M221.582 480.135L189.878 480.169L189.598 442.35H217.193L221.582 480.135Z" fill="#F5F5F5"/>
<path d="M261.414 480.086L252.356 442.334H224.76L229.71 480.186L261.414 480.086Z" fill="#F5F5F5"/>
<path d="M104.735 503.766L114.531 462.835H144.371L139.017 503.875L104.735 503.766Z" fill="#FAFAFA"/>
<path d="M183.401 503.857L149.119 503.821L153.865 462.853H183.705L183.401 503.857Z" fill="#FAFAFA"/>
<path d="M225.563 503.82L191.282 503.856L190.978 462.852H220.817L225.563 503.82Z" fill="#FAFAFA"/>
<path d="M269.947 503.766L260.151 462.835H230.311L235.665 503.875L269.947 503.766Z" fill="#FAFAFA"/>
<path d="M287.737 506.881H84.696V496.347H287.737V506.881Z" fill="#FAFAFA"/>
<path d="M128.031 501.676H114.132V493.319H128.031V501.676Z" fill="white"/>
<path d="M171.861 501.676H157.963V493.319H171.861V501.676Z" fill="white"/>
<path d="M215.692 501.676H201.793V493.319H215.692V501.676Z" fill="white"/>
<path d="M259.523 501.676H245.624V493.319H259.523V501.676Z" fill="white"/>
<path d="M565.831 506.868H373.84V165.263H565.831V506.868Z" fill="#E1E1E1"/>
<path d="M565.831 506.868H373.84V165.263H565.831V506.868Z" fill="#E1E1E1"/>
<path d="M565.831 509.864H601.204V162.267H565.831V509.864Z" fill="#E1E1E1"/>
<path d="M340.165 509.864H375.537V162.267H340.165V509.864Z" fill="#ECECEC"/>
<path d="M342.644 441.544H561.587V503.871H342.644V441.544ZM342.644 236.581H561.587V298.909H342.644V236.581ZM561.587 435.551H342.644V373.223H561.587V435.551ZM342.644 304.901H561.587V367.229H342.644V304.901ZM561.587 230.588H342.644V168.26H561.587V230.588ZM334.157 509.864H570.073V162.267H334.157V509.864Z" fill="#F5F5F5"/>
<path d="M481.165 230.588H489.327V182.225H481.165V230.588Z" fill="#ECECEC"/>
<path d="M489.325 230.588H497.485V182.225H489.325V230.588Z" fill="#E1E1E1"/>
<path d="M464.844 230.588H481.165V185.624H464.844V230.588Z" fill="#FAFAFA"/>
<path d="M446.137 230.588H456.684V182.225H446.137V230.588Z" fill="#F5F5F5"/>
<path d="M456.684 230.588H464.844V182.225H456.684V230.588Z" fill="#E1E1E1"/>
<path d="M384.243 230.588H394.789V182.225H384.243V230.588Z" fill="#F5F5F5"/>
<path d="M394.789 230.588H402.949V182.225H394.789V230.588Z" fill="#E1E1E1"/>
<path d="M419.271 230.588H429.817V182.225H419.271V230.588Z" fill="#FAFAFA"/>
<path d="M429.817 230.588H437.977V182.225H429.817V230.588Z" fill="#E1E1E1"/>
<path d="M367.923 230.588H384.243V183.371H367.923V230.588Z" fill="#E1E1E1"/>
<path d="M359.763 230.588H367.923V183.371H359.763V230.588Z" fill="#FAFAFA"/>
<path d="M408.391 230.588H419.271V183.371H408.391V230.588Z" fill="#E1E1E1"/>
<path d="M402.951 230.588H408.391V183.371H402.951V230.588Z" fill="#F5F5F5"/>
<path d="M429.817 230.588H446.137V185.624H429.817V230.588Z" fill="#E7E7E7"/>
<path d="M521.967 230.588H532.513V182.225H521.967V230.588Z" fill="#F5F5F5"/>
<path d="M532.513 230.588H540.673V182.225H532.513V230.588Z" fill="#E1E1E1"/>
<path d="M505.647 230.588H521.968V183.371H505.647V230.588Z" fill="#E1E1E1"/>
<path d="M497.485 230.588H505.647V183.371H497.485V230.588Z" fill="#F5F5F5"/>
<path d="M546.113 230.588H556.993V183.371H546.113V230.588Z" fill="#E1E1E1"/>
<path d="M540.673 230.588H546.115V183.371H540.673V230.588Z" fill="#F5F5F5"/>
<path d="M481.165 502.7H489.327V454.337H481.165V502.7Z" fill="#ECECEC"/>
<path d="M489.325 502.7H497.485V454.337H489.325V502.7Z" fill="#E1E1E1"/>
<path d="M464.844 502.7H481.165V457.736H464.844V502.7Z" fill="#FAFAFA"/>
<path d="M446.137 502.7H456.684V454.337H446.137V502.7Z" fill="#F5F5F5"/>
<path d="M456.684 502.7H464.844V454.337H456.684V502.7Z" fill="#E1E1E1"/>
<path d="M384.243 502.7H394.789V454.337H384.243V502.7Z" fill="#F5F5F5"/>
<path d="M394.789 502.7H402.949V454.337H394.789V502.7Z" fill="#E1E1E1"/>
<path d="M419.271 502.7H429.817V454.337H419.271V502.7Z" fill="#FAFAFA"/>
<path d="M429.817 502.7H437.977V454.337H429.817V502.7Z" fill="#E1E1E1"/>
<path d="M367.923 502.7H384.243V455.483H367.923V502.7Z" fill="#E1E1E1"/>
<path d="M359.763 502.7H367.923V455.483H359.763V502.7Z" fill="#FAFAFA"/>
<path d="M408.391 502.7H419.271V455.483H408.391V502.7Z" fill="#E1E1E1"/>
<path d="M402.951 502.7H408.391V455.483H402.951V502.7Z" fill="#F5F5F5"/>
<path d="M429.817 502.7H446.137V457.736H429.817V502.7Z" fill="#E7E7E7"/>
<path d="M521.967 502.7H532.513V454.337H521.967V502.7Z" fill="#F5F5F5"/>
<path d="M532.513 502.7H540.673V454.337H532.513V502.7Z" fill="#E1E1E1"/>
<path d="M505.647 502.7H521.968V455.483H505.647V502.7Z" fill="#E1E1E1"/>
<path d="M497.485 502.7H505.647V455.483H497.485V502.7Z" fill="#F5F5F5"/>
<path d="M546.113 502.7H556.993V455.483H546.113V502.7Z" fill="#E1E1E1"/>
<path d="M540.673 502.7H546.115V455.483H540.673V502.7Z" fill="#F5F5F5"/>
<path d="M481.165 367.547H489.327V319.185H481.165V367.547Z" fill="#ECECEC"/>
<path d="M489.325 367.547H497.485V319.185H489.325V367.547Z" fill="#E1E1E1"/>
<path d="M464.844 367.547H481.165V322.583H464.844V367.547Z" fill="#FAFAFA"/>
<path d="M446.137 367.547H456.684V319.185H446.137V367.547Z" fill="#F5F5F5"/>
<path d="M456.684 367.547H464.844V319.185H456.684V367.547Z" fill="#E1E1E1"/>
<path d="M384.243 367.547H394.789V319.185H384.243V367.547Z" fill="#F5F5F5"/>
<path d="M394.789 367.547H402.949V319.185H394.789V367.547Z" fill="#E1E1E1"/>
<path d="M419.271 367.547H429.817V319.185H419.271V367.547Z" fill="#FAFAFA"/>
<path d="M429.817 367.547H437.977V319.185H429.817V367.547Z" fill="#E1E1E1"/>
<path d="M367.923 367.547H384.243V320.329H367.923V367.547Z" fill="#E1E1E1"/>
<path d="M359.763 367.547H367.923V320.329H359.763V367.547Z" fill="#FAFAFA"/>
<path d="M408.391 367.547H419.271V320.329H408.391V367.547Z" fill="#E1E1E1"/>
<path d="M402.951 367.547H408.391V320.329H402.951V367.547Z" fill="#F5F5F5"/>
<path d="M429.817 367.547H446.137V322.583H429.817V367.547Z" fill="#E7E7E7"/>
<path d="M521.967 367.547H532.513V319.185H521.967V367.547Z" fill="#F5F5F5"/>
<path d="M532.513 367.547H540.673V319.185H532.513V367.547Z" fill="#E1E1E1"/>
<path d="M505.647 367.547H521.968V320.329H505.647V367.547Z" fill="#E1E1E1"/>
<path d="M497.485 367.547H505.647V320.329H497.485V367.547Z" fill="#F5F5F5"/>
<path d="M546.113 367.547H556.993V320.329H546.113V367.547Z" fill="#E1E1E1"/>
<path d="M540.673 367.547H546.115V320.329H540.673V367.547Z" fill="#F5F5F5"/>
<path d="M435.592 387.189H427.432V435.551H435.592V387.189Z" fill="#ECECEC"/>
<path d="M427.431 387.189H419.271V435.551H427.431V387.189Z" fill="#E1E1E1"/>
<path d="M451.912 391.233H435.592V436.197H451.912V391.233Z" fill="#FAFAFA"/>
<path d="M470.619 387.189H460.072V435.551H470.619V387.189Z" fill="#F5F5F5"/>
<path d="M460.072 387.189H451.911V435.551H460.072V387.189Z" fill="#E1E1E1"/>
<path d="M532.513 387.189H521.967V435.551H532.513V387.189Z" fill="#F5F5F5"/>
<path d="M521.967 387.189H513.807V435.551H521.967V387.189Z" fill="#E1E1E1"/>
<path d="M497.485 387.189H486.939V435.551H497.485V387.189Z" fill="#FAFAFA"/>
<path d="M486.939 387.189H478.779V435.551H486.939V387.189Z" fill="#E1E1E1"/>
<path d="M548.833 389.211H532.513V436.427H548.833V389.211Z" fill="#E1E1E1"/>
<path d="M556.993 389.211H548.833V436.427H556.993V389.211Z" fill="#FAFAFA"/>
<path d="M508.367 389.211H497.487V436.427H508.367V389.211Z" fill="#E1E1E1"/>
<path d="M513.807 389.211H508.367V436.427H513.807V389.211Z" fill="#F5F5F5"/>
<path d="M486.94 391.233H470.619V436.197H486.94V391.233Z" fill="#E7E7E7"/>
<path d="M394.789 387.189H384.243V435.551H394.789V387.189Z" fill="#F5F5F5"/>
<path d="M384.243 387.189H376.083V435.551H384.243V387.189Z" fill="#E1E1E1"/>
<path d="M411.111 389.211H394.789V436.427H411.111V389.211Z" fill="#E1E1E1"/>
<path d="M419.271 389.211H411.111V436.427H419.271V389.211Z" fill="#F5F5F5"/>
<path d="M370.643 389.211H359.763V436.427H370.643V389.211Z" fill="#E1E1E1"/>
<path d="M376.083 389.211H370.643V436.427H376.083V389.211Z" fill="#F5F5F5"/>
<path d="M435.592 250.197H427.432V298.56H435.592V250.197Z" fill="#ECECEC"/>
<path d="M427.431 250.197H419.271V298.56H427.431V250.197Z" fill="#E1E1E1"/>
<path d="M451.912 254.241H435.592V299.205H451.912V254.241Z" fill="#FAFAFA"/>
<path d="M470.619 250.197H460.072V298.56H470.619V250.197Z" fill="#F5F5F5"/>
<path d="M460.072 250.197H451.911V298.56H460.072V250.197Z" fill="#E1E1E1"/>
<path d="M532.513 250.197H521.967V298.56H532.513V250.197Z" fill="#F5F5F5"/>
<path d="M521.967 250.197H513.807V298.56H521.967V250.197Z" fill="#E1E1E1"/>
<path d="M497.485 250.197H486.939V298.56H497.485V250.197Z" fill="#FAFAFA"/>
<path d="M486.939 250.197H478.779V298.56H486.939V250.197Z" fill="#E1E1E1"/>
<path d="M548.833 252.22H532.513V299.437H548.833V252.22Z" fill="#E1E1E1"/>
<path d="M556.993 252.22H548.833V299.437H556.993V252.22Z" fill="#FAFAFA"/>
<path d="M508.367 252.22H497.487V299.437H508.367V252.22Z" fill="#E1E1E1"/>
<path d="M513.807 252.22H508.367V299.437H513.807V252.22Z" fill="#F5F5F5"/>
<path d="M486.94 254.241H470.619V299.205H486.94V254.241Z" fill="#E7E7E7"/>
<path d="M394.789 250.197H384.243V298.56H394.789V250.197Z" fill="#F5F5F5"/>
<path d="M384.243 250.197H376.083V298.56H384.243V250.197Z" fill="#E1E1E1"/>
<path d="M411.111 252.22H394.789V299.437H411.111V252.22Z" fill="#E1E1E1"/>
<path d="M419.271 252.22H411.111V299.437H419.271V252.22Z" fill="#F5F5F5"/>
<path d="M370.643 252.22H359.763V299.437H370.643V252.22Z" fill="#E1E1E1"/>
<path d="M376.083 252.22H370.643V299.437H376.083V252.22Z" fill="#F5F5F5"/>
<path d="M526.349 151.208H419.66V115.893H526.349V151.208Z" fill="#E1E1E1"/>
<path d="M422.956 115.892H421.637V77.8093H422.956V115.892Z" fill="#E1E1E1"/>
<path d="M525.841 115.892H524.524V77.8093H525.841V115.892Z" fill="#E1E1E1"/>
<g opacity="0.699997">
<path d="M524.224 148.885H419.66V115.892H524.224V148.885Z" fill="white"/>
</g>
<path d="M347.52 267.239C316.404 255.384 310.933 214.766 246.853 183.599C184.713 153.375 103.806 194.855 75.9037 255.258C41.7691 329.148 77.5904 416.34 137.14 441.76C199.441 468.356 264.654 427.272 306.912 431.932C350.737 436.764 375.429 509.286 465.213 509.68C535.553 509.988 588.634 460.935 602.224 358.723C610.878 293.636 590.317 227.438 496.637 220.011C426.442 214.446 382.108 280.416 347.52 267.239Z" fill="#007CFF"/>
<g opacity="0.899994">
<path d="M347.52 267.239C316.404 255.384 310.933 214.766 246.853 183.599C184.713 153.375 103.806 194.855 75.9037 255.258C41.7691 329.148 77.5904 416.34 137.14 441.76C199.441 468.356 264.654 427.272 306.912 431.932C350.737 436.764 375.429 509.286 465.213 509.68C535.553 509.988 588.634 460.935 602.224 358.723C610.878 293.636 590.317 227.438 496.637 220.011C426.442 214.446 382.108 280.416 347.52 267.239Z" fill="white"/>
</g>
<path d="M591.852 549.854C591.852 558.193 476.109 564.951 333.333 564.951C190.557 564.951 74.8145 558.193 74.8145 549.854C74.8145 541.517 190.557 534.757 333.333 534.757C476.109 534.757 591.852 541.517 591.852 549.854Z" fill="#F5F5F5"/>
<path d="M297.222 224.283C297.75 230.461 298.34 236.635 298.818 242.82C299.303 249.004 299.832 255.184 300.266 261.373L300.606 266.016L300.806 267.961C300.832 268.193 300.859 268.263 300.816 268.173C300.774 268.061 300.614 267.68 300.311 267.343C300.03 266.989 299.714 266.792 299.614 266.74C299.542 266.708 299.583 266.72 299.555 266.723C299.596 266.74 299.651 266.765 299.696 266.793C300.004 266.924 300.622 267.123 301.187 267.272C302.339 267.577 303.555 267.785 304.812 267.903L313.868 268.457C316.971 268.696 316.406 268.603 319.504 268.977C322.202 269.301 324.124 271.751 323.8 274.448C323.514 276.828 321.571 278.604 319.266 278.767C316.152 278.988 313.043 279.079 309.934 279.165L308.936 279.555L306.606 279.576L305.398 279.584L304.022 279.54C302.18 279.445 300.31 279.211 298.44 278.797C297.495 278.581 296.612 278.364 295.463 277.957L294.53 277.579C294.16 277.397 293.843 277.255 293.443 277.015C292.674 276.568 291.752 275.871 290.967 274.924C290.191 273.972 289.666 272.895 289.376 272.045C289.095 271.217 288.95 270.528 288.854 269.992C288.659 268.889 288.578 268.177 288.459 267.317L287.92 262.679C287.186 256.497 286.546 250.305 285.86 244.117C285.167 237.929 284.588 231.731 283.947 225.537C283.568 221.875 286.23 218.599 289.892 218.219C293.555 217.839 296.831 220.501 297.211 224.164C297.214 224.192 297.219 224.255 297.222 224.283Z" fill="#007CFF"/>
<g opacity="0.600006">
<path d="M297.222 224.283C297.75 230.461 298.34 236.635 298.818 242.82C299.303 249.004 299.832 255.184 300.266 261.373L300.606 266.016L300.806 267.961C300.832 268.193 300.859 268.263 300.816 268.173C300.774 268.061 300.614 267.68 300.311 267.343C300.03 266.989 299.714 266.792 299.614 266.74C299.542 266.708 299.583 266.72 299.555 266.723C299.596 266.74 299.651 266.765 299.696 266.793C300.004 266.924 300.622 267.123 301.187 267.272C302.339 267.577 303.555 267.785 304.812 267.903L313.868 268.457C316.971 268.696 316.406 268.603 319.504 268.977C322.202 269.301 324.124 271.751 323.8 274.448C323.514 276.828 321.571 278.604 319.266 278.767C316.152 278.988 313.043 279.079 309.934 279.165L308.936 279.555L306.606 279.576L305.398 279.584L304.022 279.54C302.18 279.445 300.31 279.211 298.44 278.797C297.495 278.581 296.612 278.364 295.463 277.957L294.53 277.579C294.16 277.397 293.843 277.255 293.443 277.015C292.674 276.568 291.752 275.871 290.967 274.924C290.191 273.972 289.666 272.895 289.376 272.045C289.095 271.217 288.95 270.528 288.854 269.992C288.659 268.889 288.578 268.177 288.459 267.317L287.92 262.679C287.186 256.497 286.546 250.305 285.86 244.117C285.167 237.929 284.588 231.731 283.947 225.537C283.568 221.875 286.23 218.599 289.892 218.219C293.555 217.839 296.831 220.501 297.211 224.164C297.214 224.192 297.219 224.255 297.222 224.283Z" fill="white"/>
</g>
<path d="M313.634 545.363L302.684 544.729L301.047 519.191L311.996 519.826L313.634 545.363Z" fill="#E77B62"/>
<path d="M315.002 538.836H301.63C301.182 538.836 300.79 539.148 300.689 539.585L298.424 549.335C298.19 550.347 298.974 551.304 300.01 551.285C304.313 551.212 307.456 550.96 312.874 550.96C316.209 550.96 326.258 551.307 330.862 551.307C335.365 551.307 336.113 546.753 334.233 546.341C325.8 544.492 319.457 541.943 316.776 539.511C316.293 539.073 315.658 538.836 315.002 538.836Z" fill="#1A2E35"/>
<g opacity="0.199997">
<path d="M312 519.833L301.046 519.197L301.894 532.361L312.849 532.464L312 519.833Z" fill="black"/>
</g>
<path d="M316.502 539.993C318.359 540.367 319.792 540.299 320.398 539.796C320.664 539.575 320.782 539.265 320.76 538.853C320.75 538.651 320.668 538.583 320.599 538.548C320.512 538.503 320.399 538.481 320.263 538.481C319.422 538.481 317.747 539.277 316.502 539.993ZM315.744 540.359C315.643 540.335 315.567 540.251 315.551 540.148C315.535 540.045 315.583 539.943 315.672 539.887C316.075 539.636 319.638 537.461 320.842 538.085C321.028 538.183 321.256 538.388 321.279 538.82C321.31 539.403 321.124 539.863 320.728 540.193C320.227 540.611 319.446 540.752 318.61 540.752C317.596 540.752 316.504 540.543 315.744 540.359" fill="#007CFF"/>
<path d="M317.464 536.148C316.64 536.815 316.271 538.66 316.135 539.584C317.271 538.728 318.687 536.911 318.558 536.19C318.547 536.123 318.519 535.968 318.182 535.927C318.142 535.922 318.103 535.92 318.063 535.92C317.85 535.92 317.654 535.995 317.464 536.148ZM315.664 540.324C315.584 540.274 315.54 540.182 315.548 540.086C315.56 539.952 315.855 536.787 317.14 535.746C317.474 535.474 317.846 535.364 318.25 535.411C318.87 535.488 319.03 535.871 319.07 536.092C319.29 537.315 317.071 539.719 315.93 540.336C315.891 540.355 315.848 540.366 315.806 540.366C315.756 540.366 315.707 540.352 315.664 540.324" fill="#007CFF"/>
<path d="M256.836 546.286L246.182 543.682L249.187 518.269L259.842 520.872L256.836 546.286Z" fill="#E77B62"/>
<path d="M258.273 538.836H244.901C244.453 538.836 244.061 539.148 243.96 539.585L241.694 549.335C241.461 550.347 242.245 551.304 243.281 551.285C247.584 551.212 250.726 550.96 256.145 550.96C259.48 550.96 269.529 551.307 274.133 551.307C278.636 551.307 279.384 546.753 277.504 546.341C269.07 544.492 262.728 541.943 260.046 539.511C259.564 539.073 258.929 538.836 258.273 538.836Z" fill="#1A2E35"/>
<g opacity="0.199997">
<path d="M259.843 520.88L249.183 518.276L247.455 532.91H258.458L259.843 520.88Z" fill="black"/>
</g>
<path d="M259.772 539.993C261.63 540.367 263.063 540.299 263.668 539.796C263.935 539.575 264.052 539.265 264.031 538.853C264.02 538.651 263.939 538.583 263.87 538.548C263.783 538.503 263.67 538.481 263.534 538.481C262.692 538.481 261.018 539.277 259.772 539.993ZM259.015 540.359C258.914 540.335 258.838 540.251 258.822 540.148C258.806 540.045 258.854 539.943 258.943 539.887C259.346 539.636 262.908 537.461 264.112 538.085C264.299 538.183 264.527 538.388 264.55 538.82C264.58 539.403 264.395 539.863 263.999 540.193C263.498 540.611 262.716 540.752 261.88 540.752C260.867 540.752 259.775 540.543 259.015 540.359" fill="#007CFF"/>
<path d="M260.735 536.148C259.911 536.815 259.542 538.66 259.406 539.584C260.542 538.728 261.958 536.911 261.829 536.19C261.818 536.123 261.79 535.968 261.453 535.927C261.413 535.922 261.374 535.92 261.334 535.92C261.121 535.92 260.925 535.995 260.735 536.148ZM258.935 540.324C258.855 540.274 258.811 540.182 258.819 540.086C258.831 539.952 259.126 536.787 260.41 535.746C260.745 535.474 261.117 535.364 261.521 535.411C262.141 535.488 262.301 535.871 262.341 536.092C262.561 537.315 260.342 539.719 259.201 540.336C259.162 540.355 259.119 540.366 259.077 540.366C259.027 540.366 258.978 540.352 258.935 540.324" fill="#007CFF"/>
<path d="M316.915 268.918C316.915 268.918 312.792 274.417 318.135 278.703L324.208 277.311L322.976 269.653L316.915 268.918Z" fill="#007CFF"/>
<g opacity="0.800003">
<path d="M316.915 268.918C316.915 268.918 312.792 274.417 318.135 278.703L324.208 277.311L322.976 269.653L316.915 268.918Z" fill="white"/>
</g>
<path d="M322.446 269.801L328.946 266.677L336.574 272.736C336.574 272.736 327.216 277.864 323.583 277.271C321.438 276.919 321.082 274.829 320.884 272.905C320.756 271.671 321.408 270.481 322.446 269.801Z" fill="#E77B62"/>
<path d="M336.004 267.001L339.543 269.822C340.564 270.637 340.105 272.278 338.809 272.446L336.573 272.737L328.945 266.678H335.081C335.417 266.678 335.741 266.791 336.004 267.001Z" fill="#E77B62"/>
<path d="M262.173 303.645L287.702 427.547L298.594 529.81L315.991 529.122C315.991 529.122 317.002 476.631 311.91 421.765C307.313 372.221 298.541 317.807 296.643 301.293L287.866 293.045L275.055 295.138L262.173 303.645Z" fill="#1A2E35"/>
<path d="M244.247 303.907L249.098 439.26L244.128 529.5L263.934 530.455C263.934 530.455 270.404 487.507 273.69 436.287C277 384.652 277.131 328.407 277.935 310.731L270.236 297.55H257.772L244.247 303.907Z" fill="#1A2E35"/>
<path d="M295.765 285.507C295.15 280.895 295.038 276.384 294.875 272.069C293.265 229.143 293.217 228.225 292.565 220.731C292.449 219.388 291.513 218.291 290.234 217.861C263.949 209.027 253.226 213.341 234.354 218.095C232.862 218.471 231.989 220.028 232.151 221.557C233.479 234.165 237.449 264.991 238.383 285.507C238.521 288.513 238.465 295.776 238.419 299.785C238.402 301.416 239.57 302.808 241.178 303.079C247.855 304.207 264.569 306.331 269.679 300.428C270.819 299.111 272.821 299.003 274.17 300.105C276.259 301.812 279.681 303.344 285.131 302.961C290.317 302.597 293.727 302.151 295.907 301.772C297.802 301.443 299.001 299.559 298.521 297.696C297.57 294.007 296.119 288.164 295.765 285.507Z" fill="#1A2E35"/>
<path d="M272.548 214.227L265.294 219L258.521 219.293L254.561 215.813C254.841 211.747 254.361 207.707 253.934 203.653C253.441 199 251.988 195.64 251.988 195.64L252.681 195.653L259.388 195.787L266.814 195.933C266.814 195.933 266.521 198.693 266.521 202.107V202.133C266.521 203.747 266.588 205.52 266.788 207.2C266.974 208.907 267.308 210.52 267.828 211.827C268.854 214.427 272.388 214.213 272.548 214.227Z" fill="#E77B62"/>
<path d="M273.689 213.52C273.642 214.435 272.728 237.971 270.782 271.401H270.758L251.23 213.777L252.19 213.567L263.233 219.052H266.585L272.821 213.356L272.914 213.38L273.689 213.52Z" fill="#007CFF"/>
<g opacity="0.5">
<path d="M273.689 213.52C273.642 214.435 272.728 237.971 270.782 271.401H270.758L251.23 213.777L252.19 213.567L263.233 219.052H266.585L272.821 213.356L272.914 213.38L273.689 213.52Z" fill="white"/>
</g>
<path d="M253.806 213.212L265.472 219.085L260.582 225.56L251.238 213.785L253.806 213.212Z" fill="#007CFF"/>
<path d="M273.689 213.497V213.521L269.821 225.57L265.202 219.451L264.921 219.077L265.109 218.889L271.321 213.122L272.821 213.357L272.914 213.379L273.689 213.497Z" fill="#007CFF"/>
<g opacity="0.800003">
<path d="M253.806 213.212L265.472 219.085L260.582 225.56L251.238 213.785L253.806 213.212Z" fill="white"/>
</g>
<g opacity="0.800003">
<path d="M273.689 213.497V213.521L269.821 225.57L265.202 219.451L264.921 219.077L265.109 218.889L271.321 213.122L272.821 213.357L272.914 213.379L273.689 213.497Z" fill="white"/>
</g>
<path d="M266.806 229.163C266.849 229.896 266.289 230.524 265.556 230.567C264.822 230.608 264.194 230.049 264.152 229.316C264.11 228.583 264.669 227.955 265.402 227.912C266.136 227.869 266.764 228.429 266.806 229.163Z" fill="white"/>
<path d="M269.153 246.771C269.195 247.504 268.635 248.132 267.902 248.175C267.169 248.216 266.541 247.657 266.498 246.924C266.457 246.191 267.015 245.563 267.749 245.52C268.482 245.477 269.11 246.037 269.153 246.771Z" fill="white"/>
<g opacity="0.199997">
<path d="M266.787 207.2C263.547 206.613 260.827 205.6 258.627 204.36C256.721 203.28 255.187 201.733 254.147 199.893C253.401 198.6 252.894 197.16 252.681 195.653C252.574 195.027 252.521 194.387 252.521 193.747L259.387 195.787L265.894 197.72L266.521 202.107V202.133C266.521 203.747 266.587 205.52 266.787 207.2Z" fill="black"/>
</g>
<path d="M247.77 181.059C248.823 190.847 249.068 195.001 254.258 199.799C262.066 207.03 273.855 203.581 275.747 193.686C277.435 184.77 275.418 170.213 265.623 166.815C258.646 164.314 250.962 167.943 248.46 174.921C247.755 176.885 247.519 178.987 247.77 181.059Z" fill="#E77B62"/>
<path d="M263.812 183.306C263.943 184.094 264.461 184.673 264.972 184.599C265.481 184.526 265.811 183.806 265.695 183.018C265.577 182.231 265.045 181.651 264.535 181.725C264.024 181.799 263.737 182.55 263.812 183.306Z" fill="#1A2E35"/>
<path d="M272.741 181.94C272.871 182.744 273.391 183.307 273.901 183.234C274.411 183.16 274.74 182.44 274.624 181.652C274.507 180.864 273.975 180.286 273.463 180.374C272.952 180.462 272.625 181.154 272.741 181.94Z" fill="#1A2E35"/>
<path d="M269.305 182.872C270.106 184.662 272.558 187.74 273.812 189.248C273.009 189.869 271.977 190.112 270.981 189.913L269.305 182.872Z" fill="#D64C38"/>
<path d="M259.802 181.697C260.007 181.713 260.196 181.59 260.268 181.397C261 180.035 262.268 179.041 263.764 178.653C264.019 178.59 264.175 178.335 264.115 178.079C264.054 177.831 263.804 177.679 263.556 177.739C263.551 177.741 263.546 177.742 263.54 177.743C261.736 178.197 260.22 179.411 259.387 181.073C259.298 181.313 259.419 181.578 259.659 181.667C259.703 181.691 259.752 181.701 259.802 181.697Z" fill="#1A2E35"/>
<path d="M274.851 177.775C275.022 177.783 275.185 177.7 275.281 177.557C275.421 177.34 275.361 177.049 275.146 176.905C273.893 176.017 272.281 175.811 270.846 176.356C270.615 176.445 270.502 176.705 270.593 176.936C270.597 176.947 270.601 176.959 270.607 176.969C270.709 177.204 270.981 177.312 271.214 177.211C271.217 177.209 271.219 177.209 271.221 177.208C272.355 176.823 273.603 177.001 274.585 177.689C274.662 177.745 274.755 177.775 274.851 177.775Z" fill="#1A2E35"/>
<path d="M271.104 170.62C271.334 168.976 263.8 153.254 245.326 169.714C244.629 170.335 244.418 171.378 243.71 171.986C243.001 172.592 241.865 172.844 241.148 172.247C241.96 173.731 243.332 174.899 244.925 175.466C242.729 178.891 243.026 183.343 244.324 187.2C245.62 191.059 247.669 194.671 248.516 198.651C248.801 199.995 248.776 201.719 247.558 202.354C249.841 203.248 251.673 202.186 253.429 200.474C248.606 182.871 255.458 193.476 252.186 179.286C251.914 178.111 251.92 176.807 252.48 175.74C253.058 174.64 254.272 173.999 255.492 173.759C256.712 173.522 267.57 172.319 271.104 170.62Z" fill="#1A2E35"/>
<path d="M245.45 188.732C246.149 190.46 247.502 191.842 249.214 192.58C251.505 193.525 252.953 191.55 252.571 189.22C252.21 187.126 250.594 184.11 248.179 184.112C246.425 184.169 245.049 185.637 245.105 187.392C245.121 187.858 245.238 188.316 245.45 188.732Z" fill="#E77B62"/>
<g opacity="0.600006">
<path d="M254.612 244.901L254.988 252.094L243.124 252.713L242.748 245.52L248.022 245.245C247.647 244.984 247.67 244.444 247.64 243.872C247.595 242.993 247.842 242.317 248.534 242.281C249.227 242.245 249.498 242.973 249.543 243.852C249.574 244.425 249.698 244.877 249.352 245.176L254.612 244.901Z" fill="white"/>
</g>
<path d="M253.345 251.347L244.565 251.806C244.085 251.83 243.674 251.46 243.65 250.98L243.441 246.986C243.415 246.506 243.785 246.096 244.265 246.07L253.046 245.612C253.526 245.587 253.935 245.956 253.961 246.436L254.17 250.431C254.195 250.912 253.825 251.322 253.345 251.347Z" fill="white"/>
<path d="M249.024 243.274C249.037 243.53 248.84 243.749 248.582 243.763C248.326 243.777 248.108 243.579 248.094 243.322C248.081 243.066 248.278 242.847 248.534 242.833C248.792 242.821 249.01 243.018 249.024 243.274Z" fill="#1A2E35"/>
<g opacity="0.199997">
<path d="M237.604 247.772L237.056 268.077L234.148 239.852L237.604 247.772Z" fill="black"/>
</g>
<path d="M269.957 272.684L279.615 273.085C280.565 273.076 281.512 273.184 282.437 273.402L288.417 275.13L293.916 274.738C295.305 274.409 296.556 275.653 296.236 277.045L295.461 280.408C295.305 281.086 294.797 281.628 294.131 281.824L285.352 284.414L275.985 279.414L265.624 280.733L267.173 272.65L269.957 272.684Z" fill="#E77B62"/>
<path d="M262.253 273.199C262.253 273.199 267.446 271.586 271.356 272.033C271.356 272.033 269.364 277.13 272.342 280.922L263.133 282.121L262.253 273.199Z" fill="#007CFF"/>
<g opacity="0.800003">
<path d="M262.253 273.199C262.253 273.199 267.446 271.586 271.356 272.033C271.356 272.033 269.364 277.13 272.342 280.922L263.133 282.121L262.253 273.199Z" fill="white"/>
</g>
<path d="M234.473 218.659C234.473 218.659 221.481 218.659 221.92 261.985C222.209 290.489 232.132 285.307 244.87 284.493L267.273 282.394C267.273 282.394 264.976 276.266 266.876 271.343C266.876 271.343 255.833 273.514 237.772 271.401C237.772 271.401 235.216 250.207 237.445 245.909C237.445 245.909 240.212 226.646 234.473 218.659" fill="#007CFF"/>
<g opacity="0.600006">
<path d="M234.473 218.659C234.473 218.659 221.481 218.659 221.92 261.985C222.209 290.489 232.132 285.307 244.87 284.493L267.273 282.394C267.273 282.394 264.976 276.266 266.876 271.343C266.876 271.343 255.833 273.514 237.772 271.401C237.772 271.401 235.216 250.207 237.445 245.909C237.445 245.909 240.212 226.646 234.473 218.659" fill="white"/>
</g>
<g opacity="0.100006">
<path d="M281.382 399.272L277.935 338.927L274.455 369.099L281.382 399.272Z" fill="black"/>
</g>
<path d="M272.757 193.392C272.757 193.392 269.674 192.436 260.818 192.14C261.595 195.299 263.319 197.913 267.859 198.015C272.398 198.116 272.757 193.392 272.757 193.392Z" fill="#1A2E35"/>
<path d="M265.961 195.489C268.151 195.537 269.683 196.176 270.775 197.164C270.085 197.692 269.131 198.038 267.863 198.01C265.673 197.961 264.149 197.338 263.059 196.336C263.75 195.808 264.691 195.461 265.961 195.489Z" fill="#D64C38"/>
<path d="M272.362 193.29C272.056 193.947 271.752 194.606 270.845 194.794C268.988 194.879 264.317 194.106 263.074 193.754C262.274 193.57 261.609 193.222 261.201 192.154C268.02 192.4 271.306 193.04 272.362 193.29Z" fill="white"/>
<path d="M427.217 551.706H168.057L150.913 359.03H444.36L427.217 551.706Z" fill="black"/>
<g opacity="0.399994">
<path d="M427.217 551.706H168.057L150.913 359.03H444.36L427.217 551.706Z" fill="white"/>
</g>
<path d="M445.741 373.911H148.826C146.994 373.911 145.51 372.427 145.51 370.595V360.731C145.51 358.901 146.994 357.417 148.826 357.417H445.741C447.573 357.417 449.057 358.901 449.057 360.731V370.595C449.057 372.427 447.573 373.911 445.741 373.911Z" fill="#1A2E35"/>
<g opacity="0.199997">
<path d="M445.741 373.911H148.826C146.994 373.911 145.51 372.427 145.51 370.595V360.731C145.51 358.901 146.994 357.417 148.826 357.417H445.741C447.573 357.417 449.057 358.901 449.057 360.731V370.595C449.057 372.427 447.573 373.911 445.741 373.911Z" fill="white"/>
</g>
<path d="M385.257 334.6V342.651C384.265 342.651 384.263 344.192 385.257 344.192C388.325 344.192 391.395 344.214 394.465 344.232V333.059H385.257C384.265 333.059 384.263 334.6 385.257 334.6Z" fill="#007CFF"/>
<g opacity="0.300003">
<path d="M385.257 334.6V342.651C384.265 342.651 384.263 344.192 385.257 344.192C388.325 344.192 391.395 344.214 394.465 344.232V333.059H385.257C384.265 333.059 384.263 334.6 385.257 334.6Z" fill="white"/>
</g>
<path d="M392.409 334.612H385.256V342.651H392.409V334.612Z" fill="#007CFF"/>
<g opacity="0.600006">
<path d="M392.409 334.612H385.256V342.651H392.409V334.612Z" fill="white"/>
</g>
<path d="M390.909 333.829H430.398C432.104 333.829 433.486 335.976 433.486 338.627C433.486 341.275 432.104 343.421 430.398 343.421H390.909V333.829Z" fill="#007CFF"/>
<g opacity="0.899994">
<path d="M390.909 333.829H430.398C432.104 333.829 433.486 335.976 433.486 338.627C433.486 341.275 432.104 343.421 430.398 343.421H390.909V333.829Z" fill="white"/>
</g>
<path d="M390.909 344.193C399.028 344.193 421.85 344.339 429.968 344.193C435.529 344.093 435.828 333.434 430.374 333.058C426.572 332.798 422.66 333.058 418.852 333.058H390.909C389.917 333.058 389.916 334.601 390.909 334.601H428.685C430.466 334.601 431.741 334.621 432.429 336.721C433.024 338.539 432.837 342.25 430.398 342.651C430.136 342.695 429.826 342.651 429.564 342.651H416.976H390.909C389.917 342.651 389.916 344.193 390.909 344.193Z" fill="#007CFF"/>
<path d="M380.667 345.887V355.468C379.486 355.468 379.484 357.303 380.667 357.303C384.318 357.303 387.972 357.327 391.626 357.348V344.052H380.667C379.486 344.052 379.484 345.887 380.667 345.887Z" fill="#007CFF"/>
<g opacity="0.300003">
<path d="M380.667 345.887V355.468C379.486 355.468 379.484 357.303 380.667 357.303C384.318 357.303 387.972 357.327 391.626 357.348V344.052H380.667C379.486 344.052 379.484 345.887 380.667 345.887Z" fill="white"/>
</g>
<path d="M389.179 345.9H380.667V355.468H389.179V345.9Z" fill="#007CFF"/>
<g opacity="0.600006">
<path d="M389.179 345.9H380.667V355.468H389.179V345.9Z" fill="white"/>
</g>
<path d="M387.393 344.969H434.388C436.417 344.969 438.061 347.525 438.061 350.677C438.061 353.83 436.417 356.385 434.388 356.385H387.393V344.969Z" fill="#007CFF"/>
<g opacity="0.899994">
<path d="M387.393 344.969H434.388C436.417 344.969 438.061 347.525 438.061 350.677C438.061 353.83 436.417 356.385 434.388 356.385H387.393V344.969Z" fill="white"/>
</g>
<path d="M387.393 357.302C397.056 357.302 424.215 357.477 433.876 357.302C440.493 357.182 440.849 344.497 434.359 344.051C429.833 343.742 425.179 344.051 420.645 344.051H387.393C386.212 344.051 386.211 345.886 387.393 345.886H432.348C434.468 345.886 435.984 345.91 436.804 348.41C437.512 350.574 437.289 354.99 434.388 355.467C434.075 355.518 433.707 355.467 433.393 355.467H418.415H387.393C386.212 355.467 386.211 357.302 387.393 357.302Z" fill="#007CFF"/>
<g opacity="0.199997">
<path d="M387.393 357.302C397.056 357.302 424.215 357.477 433.876 357.302C440.493 357.182 440.849 344.497 434.359 344.051C429.833 343.742 425.179 344.051 420.645 344.051H387.393C386.212 344.051 386.211 345.886 387.393 345.886H432.348C434.468 345.886 435.984 345.91 436.804 348.41C437.512 350.574 437.289 354.99 434.388 355.467C434.075 355.518 433.707 355.467 433.393 355.467H418.415H387.393C386.212 355.467 386.211 357.302 387.393 357.302Z" fill="black"/>
</g>
<path d="M385.033 315.911V320.258C384.233 320.258 384.232 321.09 385.033 321.09C387.505 321.09 389.979 321.102 392.453 321.11V315.079H385.033C384.233 315.079 384.232 315.911 385.033 315.911Z" fill="#007CFF"/>
<g opacity="0.300003">
<path d="M385.033 315.911V320.258C384.233 320.258 384.232 321.09 385.033 321.09C387.505 321.09 389.979 321.102 392.453 321.11V315.079H385.033C384.233 315.079 384.232 315.911 385.033 315.911Z" fill="white"/>
</g>
<path d="M390.797 315.917H385.033V320.259H390.797V315.917Z" fill="#007CFF"/>
<g opacity="0.600006">
<path d="M390.797 315.917H385.033V320.259H390.797V315.917Z" fill="white"/>
</g>
<path d="M389.588 315.495H421.407C422.781 315.495 423.893 316.653 423.893 318.084C423.893 319.515 422.781 320.673 421.407 320.673H389.588V315.495Z" fill="#007CFF"/>
<g opacity="0.899994">
<path d="M389.588 315.495H421.407C422.781 315.495 423.893 316.653 423.893 318.084C423.893 319.515 422.781 320.673 421.407 320.673H389.588V315.495Z" fill="white"/>
</g>
<path d="M389.588 321.09C396.131 321.09 414.519 321.17 421.06 321.09C425.54 321.035 425.783 315.282 421.387 315.079C418.323 314.938 415.172 315.079 412.103 315.079H389.588C388.788 315.079 388.787 315.911 389.588 315.911H420.027C421.461 315.911 422.488 315.922 423.043 317.057C423.523 318.038 423.371 320.041 421.407 320.258C421.196 320.282 420.947 320.258 420.733 320.258H410.591H389.588C388.788 320.258 388.787 321.09 389.588 321.09Z" fill="#007CFF"/>
<g opacity="0.199997">
<path d="M389.588 321.09C396.131 321.09 414.519 321.17 421.06 321.09C425.54 321.035 425.783 315.282 421.387 315.079C418.323 314.938 415.172 315.079 412.103 315.079H389.588C388.788 315.079 388.787 315.911 389.588 315.911H420.027C421.461 315.911 422.488 315.922 423.043 317.057C423.523 318.038 423.371 320.041 421.407 320.258C421.196 320.282 420.947 320.258 420.733 320.258H410.591H389.588C388.788 320.258 388.787 321.09 389.588 321.09Z" fill="white"/>
</g>
<path d="M386.14 321.777V325.803C385.4 325.803 385.398 326.573 386.14 326.573C388.429 326.573 390.721 326.583 393.012 326.592V321.007H386.14C385.4 321.007 385.398 321.777 386.14 321.777Z" fill="#007CFF"/>
<g opacity="0.300003">
<path d="M386.14 321.777V325.803C385.4 325.803 385.398 326.573 386.14 326.573C388.429 326.573 390.721 326.583 393.012 326.592V321.007H386.14C385.4 321.007 385.398 321.777 386.14 321.777Z" fill="white"/>
</g>
<path d="M391.479 321.783H386.14V325.803H391.479V321.783Z" fill="#007CFF"/>
<g opacity="0.600006">
<path d="M391.479 321.783H386.14V325.803H391.479V321.783Z" fill="white"/>
</g>
<path d="M390.358 321.392H419.826C421.098 321.392 422.13 322.465 422.13 323.789C422.13 325.115 421.098 326.188 419.826 326.188H390.358V321.392Z" fill="#007CFF"/>
<g opacity="0.899994">
<path d="M390.358 321.392H419.826C421.098 321.392 422.13 322.465 422.13 323.789C422.13 325.115 421.098 326.188 419.826 326.188H390.358V321.392Z" fill="white"/>
</g>
<path d="M390.358 326.573C396.417 326.573 413.448 326.646 419.505 326.573C423.654 326.524 423.878 321.193 419.808 321.006C416.97 320.877 414.052 321.006 411.209 321.006H390.358C389.618 321.006 389.617 321.777 390.358 321.777H418.548C419.877 321.777 420.828 321.786 421.341 322.837C421.785 323.746 421.645 325.601 419.826 325.802C419.63 325.824 419.4 325.802 419.202 325.802H409.809H390.358C389.618 325.802 389.617 326.573 390.358 326.573Z" fill="#007CFF"/>
<path d="M382.714 327.421V332.21C381.834 332.21 381.832 333.127 382.714 333.127C385.44 333.127 388.165 333.141 390.893 333.151V326.503H382.714C381.834 326.503 381.832 327.421 382.714 327.421Z" fill="#007CFF"/>
<g opacity="0.300003">
<path d="M382.714 327.421V332.21C381.834 332.21 381.832 333.127 382.714 333.127C385.44 333.127 388.165 333.141 390.893 333.151V326.503H382.714C381.834 326.503 381.832 327.421 382.714 327.421Z" fill="white"/>
</g>
<path d="M389.067 327.427H382.713V332.209H389.067V327.427Z" fill="#007CFF"/>
<g opacity="0.600006">
<path d="M389.067 327.427H382.713V332.209H389.067V327.427Z" fill="white"/>
</g>
<path d="M387.735 326.961H422.803C424.317 326.961 425.544 328.238 425.544 329.816C425.544 331.392 424.317 332.669 422.803 332.669H387.735V326.961Z" fill="#007CFF"/>
<g opacity="0.899994">
<path d="M387.735 326.961H422.803C424.317 326.961 425.544 328.238 425.544 329.816C425.544 331.392 424.317 332.669 422.803 332.669H387.735V326.961Z" fill="white"/>
</g>
<path d="M387.735 333.128C394.945 333.128 415.212 333.214 422.421 333.128C427.359 333.068 427.624 326.725 422.781 326.502C419.404 326.348 415.931 326.502 412.548 326.502H387.735C386.853 326.502 386.852 327.421 387.735 327.421H421.281C422.863 327.421 423.993 327.433 424.605 328.682C425.135 329.764 424.968 331.972 422.803 332.21C422.569 332.236 422.295 332.21 422.061 332.21H410.883H387.735C386.853 332.21 386.852 333.128 387.735 333.128Z" fill="#007CFF"/>
<g opacity="0.199997">
<path d="M387.735 333.128C394.945 333.128 415.212 333.214 422.421 333.128C427.359 333.068 427.624 326.725 422.781 326.502C419.404 326.348 415.931 326.502 412.548 326.502H387.735C386.853 326.502 386.852 327.421 387.735 327.421H421.281C422.863 327.421 423.993 327.433 424.605 328.682C425.135 329.764 424.968 331.972 422.803 332.21C422.569 332.236 422.295 332.21 422.061 332.21H410.883H387.735C386.853 332.21 386.852 333.128 387.735 333.128Z" fill="black"/>
</g>
<path d="M359.881 357.171H296.608L302.633 288.307H365.906L359.881 357.171Z" fill="#1A2E35"/>
<path d="M359.881 357.171H296.608L302.633 288.307H365.906L359.881 357.171Z" fill="#007CFF"/>
<g opacity="0.199997">
<path d="M359.881 357.171H296.608L302.633 288.307H365.906L359.881 357.171Z" fill="black"/>
</g>
<path d="M309.474 357.171H372.747L366.722 288.307H303.448L309.474 357.171Z" fill="#1A2E35"/>
<path d="M228.647 333.422H167.806L163.461 283.747H224.301L228.647 333.422Z" fill="#007CFF"/>
<g opacity="0.199997">
<path d="M222.692 333.422H167.738L163.813 288.555H218.766L222.692 333.422Z" fill="black"/>
</g>
<path d="M202.134 339.996H184.204V321.844H202.186L202.134 339.996Z" fill="#1A2E35"/>
<path d="M202.185 321.844H184.205V303.361H202.185V321.844Z" fill="#1A2E35"/>
<g opacity="0.100006">
<path d="M202.185 321.844H184.205V303.361H202.185V321.844Z" fill="white"/>
</g>
<g opacity="0.199997">
<path d="M186.386 303.361H199.652C200.65 303.361 201.459 303.71 201.459 304.139C201.459 304.57 200.65 304.918 199.652 304.918H186.386C185.388 304.918 184.579 304.57 184.579 304.139C184.579 303.71 185.388 303.361 186.386 303.361Z" fill="white"/>
</g>
<path d="M240.921 357.342H159.167V339.996H223.686L240.921 348.878V357.342Z" fill="#007CFF"/>
<g opacity="0.199997">
<path d="M223.687 357.343H159.167V339.996H223.687V357.343Z" fill="black"/>
</g>
<path d="M202.749 293.588H195.474L192.748 262.413H200.022L202.749 293.588Z" fill="#007CFF"/>
<g opacity="0.199997">
<path d="M202.749 293.588H195.474L192.748 262.413H200.022L202.749 293.588Z" fill="black"/>
</g>
<path d="M219.756 269.676L174.72 269.266L173.209 252.018L218.247 252.428L219.756 269.676Z" fill="#007CFF"/>
<path d="M216.747 266.422H177.54L176.447 253.937L215.692 254.367L216.747 266.422Z" fill="#1A2E35"/>
<path d="M173.21 252.018L174.719 269.266L171.989 267.608L171.011 255.068L173.21 252.018Z" fill="#007CFF"/>
<g opacity="0.199997">
<path d="M173.21 252.018L174.719 269.266L171.989 267.608L171.011 255.068L173.21 252.018Z" fill="black"/>
</g>
<path d="M391.121 288.811C396.899 284.227 402.195 279.086 407.601 274.07L412.815 268.963C415.201 266.656 417.405 264.215 419.437 261.638C421.502 259.022 423.13 256.466 425.195 253.2C425.195 253.2 436.978 234.69 441.035 228.558C443.837 224.324 449.539 223.164 453.773 225.966C458.006 228.767 459.167 234.47 456.366 238.703C456.33 238.755 456.27 238.844 456.234 238.895C452.003 244.951 439.085 262.819 439.085 262.819L437.461 265.064L436.649 266.186L435.689 267.459C434.431 269.082 433.09 270.636 431.709 272.146C428.946 275.167 425.931 277.956 422.735 280.463L416.83 284.767C411.075 289.379 405.211 293.864 399.83 298.907C397.141 301.427 392.918 301.29 390.398 298.6C387.878 295.912 388.015 291.69 390.705 289.17C390.837 289.047 390.982 288.922 391.121 288.811Z" fill="#007CFF"/>
<g opacity="0.100006">
<path d="M391.121 288.811C396.899 284.227 402.195 279.086 407.601 274.07L412.815 268.963C415.201 266.656 417.405 264.215 419.437 261.638C421.502 259.022 423.13 256.466 425.195 253.2C425.195 253.2 436.978 234.69 441.035 228.558C443.837 224.324 449.539 223.164 453.773 225.966C458.006 228.767 459.167 234.47 456.366 238.703C456.33 238.755 456.27 238.844 456.234 238.895C452.003 244.951 439.085 262.819 439.085 262.819L437.461 265.064L436.649 266.186L435.689 267.459C434.431 269.082 433.09 270.636 431.709 272.146C428.946 275.167 425.931 277.956 422.735 280.463L416.83 284.767C411.075 289.379 405.211 293.864 399.83 298.907C397.141 301.427 392.918 301.29 390.398 298.6C387.878 295.912 388.015 291.69 390.705 289.17C390.837 289.047 390.982 288.922 391.121 288.811Z" fill="black"/>
</g>
<path d="M394.257 292.721L389.924 290.717L384.168 301.092C386.809 301.603 389.496 301.832 392.185 301.779C394.011 301.705 395.627 300.577 396.325 298.889L396.515 298.449C397.425 296.244 396.428 293.713 394.257 292.721Z" fill="#CE5B51"/>
<path d="M379.996 289.744L379.871 300.299L384.16 301.101L389.915 290.727L379.996 289.744Z" fill="#CE5B51"/>
<path d="M380.764 308.895L389.651 301.277L371.692 283.693L362.804 291.311L380.764 308.895Z" fill="#007CFF"/>
<path d="M360.29 291.659L380.385 311.337C380.875 311.805 381.654 311.833 382.175 311.387L382.695 310.941C382.175 311.387 381.405 311.352 380.914 310.883L360.819 291.205C360.263 290.66 360.293 289.761 360.881 289.256L360.361 289.703C359.771 290.208 359.734 291.113 360.29 291.659Z" fill="#007CFF"/>
<g opacity="0.300003">
<path d="M360.29 291.659L380.385 311.337C380.875 311.805 381.654 311.833 382.175 311.387L382.695 310.941C382.175 311.387 381.405 311.352 380.914 310.883L360.819 291.205C360.263 290.66 360.293 289.761 360.881 289.256L360.361 289.703C359.771 290.208 359.734 291.113 360.29 291.659Z" fill="black"/>
</g>
<path d="M362.804 291.31L371.692 283.693L389.651 301.278L380.764 308.894L362.804 291.31ZM360.819 291.205L380.915 310.883C381.404 311.351 382.175 311.387 382.695 310.942L391.566 303.338C392.155 302.834 392.184 301.935 391.628 301.39L371.532 281.711C371.051 281.235 370.272 281.207 369.751 281.654L360.882 289.256C360.292 289.76 360.263 290.661 360.819 291.205Z" fill="#007CFF"/>
<path d="M362.804 291.31L380.764 308.894L389.651 301.278L371.692 283.692L362.804 291.31Z" fill="#007CFF"/>
<g opacity="0.699997">
<path d="M362.804 291.31L380.764 308.894L389.651 301.278L371.692 283.692L362.804 291.31Z" fill="white"/>
</g>
<path d="M383.791 290.12L380.199 288.993C379.849 288.884 379.509 289.185 379.574 289.545L379.774 290.632C379.901 291.314 380.33 291.902 380.942 292.229L387.391 295.672L389.915 290.726L383.791 290.12Z" fill="#CE5B51"/>
<path d="M435.662 541.078L425.27 538.567L430.636 514.405L441.029 516.915L435.662 541.078Z" fill="#CE5B51"/>
<path d="M425.66 536.06L437.026 538.804C437.444 538.904 437.734 539.288 437.714 539.719L437.322 549.365C437.276 550.255 436.52 550.939 435.632 550.893C435.531 550.888 435.431 550.873 435.332 550.851C431.26 549.787 425.408 548.12 420.256 546.876C414.244 545.424 413.674 545.635 406.627 543.932C402.359 542.903 402.326 538.337 404.212 538.377C412.812 538.571 414.791 538.848 422.962 536.223C423.83 535.923 424.763 535.867 425.66 536.06Z" fill="#1A2E35"/>
<g opacity="0.199997">
<path d="M430.633 514.418L427.866 526.874L438.26 529.383L441.026 516.927L430.633 514.418Z" fill="black"/>
</g>
<path d="M419.804 532.423C419.647 532.383 419.484 532.375 419.323 532.399C419.218 532.431 419.136 532.516 419.111 532.624C418.988 532.902 419.02 533.226 419.195 533.474C419.67 534.18 421.326 534.686 423.695 534.85C422.546 533.827 421.23 533.006 419.804 532.423ZM421.058 534.976C420.16 534.847 419.334 534.411 418.722 533.742C418.46 533.366 418.408 532.882 418.584 532.458C418.667 532.192 418.88 531.991 419.148 531.922C420.564 531.514 424.14 534.588 424.54 534.95C424.644 535.034 424.66 535.187 424.575 535.291C424.523 535.355 424.44 535.39 424.358 535.379C423.248 535.347 422.143 535.212 421.058 534.976Z" fill="#007CFF"/>
<path d="M422.919 530.7L422.77 530.664C422.335 530.559 422.246 530.762 422.219 530.82C421.929 531.475 423.126 533.607 424.187 534.667C424.389 533.491 424.221 532.282 423.706 531.206C423.517 530.944 423.237 530.763 422.919 530.7ZM424.354 535.392L424.254 535.367C423.146 534.506 421.314 531.734 421.807 530.616C421.87 530.354 422.203 530.066 422.89 530.167C423.387 530.224 423.835 530.49 424.122 530.898C425.109 532.268 424.678 535.087 424.663 535.202C424.645 535.288 424.587 535.362 424.51 535.402C424.458 535.41 424.405 535.406 424.354 535.392Z" fill="#007CFF"/>
<path d="M515.944 540.65H505.091L500.814 516.271L511.376 514.616L515.944 540.65Z" fill="#CE5B51"/>
<g opacity="0.199997">
<path d="M500.816 516.283L503.299 530.44L513.861 528.785L511.379 514.629L500.816 516.283Z" fill="black"/>
</g>
<path d="M504.831 539.71L516.519 539.44C516.95 539.428 517.328 539.726 517.419 540.147L519.522 549.571C519.707 550.442 519.151 551.296 518.282 551.482C518.183 551.503 518.082 551.515 517.982 551.516C513.771 551.536 507.688 551.43 502.388 551.552C496.207 551.695 495.708 552.044 488.462 552.212C484.072 552.314 482.866 547.91 484.7 547.466C493.06 545.44 495.043 545.199 502.264 540.563C503.026 540.05 503.914 539.755 504.831 539.71Z" fill="#1A2E35"/>
<path d="M498.02 538.974C497.858 538.975 497.698 539.009 497.548 539.074C497.455 539.131 497.399 539.235 497.402 539.346C497.355 539.647 497.468 539.95 497.702 540.147C498.343 540.709 500.072 540.77 502.404 540.319C501.03 539.625 499.548 539.17 498.02 538.974ZM499.888 541.119C498.987 541.226 498.078 541.017 497.314 540.526C496.964 540.23 496.79 539.777 496.851 539.322C496.862 539.045 497.016 538.793 497.258 538.659C498.52 537.899 502.767 539.951 503.246 540.197C503.368 540.253 503.423 540.397 503.368 540.519C503.334 540.595 503.263 540.649 503.18 540.661C502.1 540.915 500.998 541.069 499.888 541.119Z" fill="#007CFF"/>
<path d="M499.205 536.781L499.053 536.805C498.611 536.875 498.607 537.095 498.604 537.16C498.587 537.876 500.508 539.389 501.892 539.963C501.629 538.799 501.012 537.747 500.125 536.948C499.851 536.779 499.521 536.719 499.205 536.781ZM502.324 540.568L502.223 540.584C500.869 540.212 498.117 538.352 498.145 537.129C498.104 536.864 498.301 536.471 498.975 536.3C499.455 536.163 499.971 536.237 500.393 536.505C501.828 537.395 502.508 540.164 502.537 540.275C502.553 540.363 502.529 540.452 502.472 540.519C502.427 540.545 502.376 540.563 502.324 540.568Z" fill="#007CFF"/>
<path d="M451.597 307.337L436.011 436.951L424.696 518.059C424.424 520.25 425.74 522.223 427.664 522.509L440.248 525.711C442.072 525.982 443.831 524.647 444.319 522.614C448.34 505.855 459.067 473.146 461.091 441.023C461.091 441.023 482.489 359.089 486.808 333.749L488.128 310.837L451.597 307.337Z" fill="#1A2E35"/>
<g opacity="0.199997">
<path d="M470.174 339.397C470.174 339.397 466.283 375.861 470.174 405.505C470.174 405.505 478.365 371.492 482.083 358.063L470.174 339.397Z" fill="black"/>
</g>
<path d="M467.097 302.082L482.899 445.703L496.311 524.658C496.716 526.713 498.497 527.981 500.348 527.531L514.188 524.655C515.977 524.221 517.228 522.334 517.069 520.298C515.76 503.575 519.44 474.83 511.269 445.294C511.269 445.294 507.447 346.725 503.957 302.338L467.097 302.082Z" fill="#1A2E35"/>
<path d="M493.939 235.234C493.914 236.815 493.9 238.215 493.946 239.342C495.144 265.619 503.958 302.338 503.958 302.338C503.958 302.338 466.934 313.326 452.088 309.199C451.634 306.978 451.155 304.651 450.662 302.262C449.791 298.042 448.876 293.627 447.936 289.11C443.688 268.672 439.158 246.507 437.888 234.944C437.046 227.226 448.994 223.167 455.343 221.687C467.355 218.888 487.187 214.92 486.262 215.412C488.391 215.732 489.942 216.792 491.052 218.311C494.066 222.383 493.998 229.782 493.939 235.234Z" fill="#007CFF"/>
<g opacity="0.100006">
<path d="M482.859 232.066L494.692 249.308C494.692 249.308 492.811 229.69 492.739 226.046C492.666 222.402 482.859 232.066 482.859 232.066Z" fill="black"/>
</g>
<path d="M536.865 286.884L542.781 295.593C543.32 296.477 543.964 297.293 544.697 298.023L549.732 302.567L552.525 307.883C553.02 309.356 554.889 309.8 555.993 308.705L558.663 306.057C559.2 305.523 559.408 304.743 559.208 304.012L556.564 294.397L546.557 288.599L541.829 278.251L535.236 284.325L536.865 286.884Z" fill="#CE5B51"/>
<path d="M513.756 257.92C511.488 255.661 509.231 253.825 506.344 251.495L498.131 244.799C492.768 240.389 485.807 235.967 480.497 231.497C476.803 228.387 475.987 222.819 478.988 219.035C482.093 215.117 487.797 214.565 491.593 217.764C491.64 217.803 491.717 217.869 491.761 217.909C497.071 222.615 502.34 227.364 507.592 232.132L515.44 239.316L517.401 241.113L518.381 242.012L519.489 243.068C520.899 244.447 522.232 245.899 523.52 247.384C526.095 250.353 528.423 253.536 530.46 256.863L536.001 265.929C539.611 271.684 542.211 277.773 545.841 284.983C546.103 285.501 545.933 286.139 545.44 286.444C543.993 287.339 541.121 289.145 539.749 290.199C539.271 290.565 538.592 290.483 538.212 290.013C535.533 286.707 513.756 257.92 513.756 257.92Z" fill="#007CFF"/>
<path d="M459.463 197.542C460.745 203.513 465.294 212.014 468.199 218.013C470.901 223.589 458.817 235.254 458.817 235.254C458.817 235.254 450.447 233.16 453.194 227.166C455.493 222.153 454.243 218.241 451.222 214.262L459.463 197.542Z" fill="#CE5B51"/>
<g opacity="0.199997">
<path d="M456.108 204.402L451.218 214.279C452.07 215.375 452.83 216.54 453.491 217.762C456.22 216.096 458.848 211.188 457.855 208.016C457.502 206.714 456.91 205.488 456.108 204.402Z" fill="black"/>
</g>
<path d="M455.866 186.933C459.263 196.428 461.734 201.801 459.099 208.553C455.137 218.701 441.913 219.365 435.742 211.074C430.198 203.625 425.574 189.348 433.046 181.798C438.35 176.372 447.049 176.272 452.477 181.574C454.009 183.072 455.17 184.906 455.866 186.933Z" fill="#CE5B51"/>
<path d="M439.666 208.843C442.041 208.464 444.084 206.954 445.141 204.794C445.173 204.655 445.086 204.516 444.948 204.483C444.841 204.459 444.73 204.504 444.672 204.596C443.664 206.599 441.758 208 439.545 208.366C439.405 208.394 439.314 208.531 439.344 208.671C439.377 208.803 439.51 208.883 439.641 208.85C439.65 208.848 439.658 208.846 439.666 208.843Z" fill="#1A2E35"/>
<path d="M459.972 191.1C459.054 187.73 458.11 184.304 456.14 181.406C454.168 178.506 450.978 176.158 447.157 175.914C442.245 175.602 437.774 176.806 432.808 177.198C431.097 177.332 429.493 178.699 429.208 180.264C428.922 181.83 429.989 183.414 431.601 183.822C433.321 183.276 435.273 183.142 436.992 182.598C439.413 181.831 442.005 181.055 444.378 181.618C446.456 182.111 448.048 183.587 449.078 185.283C450.11 186.98 450.66 188.907 451.269 190.792C451.534 191.616 451.884 192.511 452.722 192.875C453.788 193.335 455.093 192.73 456.206 192.195C457.32 191.66 458.745 191.2 459.652 191.878C459.754 191.595 459.87 191.383 459.972 191.1Z" fill="#1A2E35"/>
<path d="M451.938 191.811C453.23 194.917 453.852 198.297 453.752 201.658C453.822 201.553 453.89 201.447 453.959 201.341C455.222 200.871 456.368 200.803 457.631 200.334C457.228 197.57 456.392 194.83 455.204 192.305C455.054 191.986 454.882 191.653 454.578 191.478C453.684 190.963 452.9 192.181 451.938 191.811Z" fill="#1A2E35"/>
<path d="M463.533 194.067C463.539 196.604 462.543 199.042 460.759 200.848C458.381 203.22 455.553 201.49 454.841 198.354C454.199 195.568 454.671 190.966 457.719 189.759C460.769 188.552 463.493 190.974 463.533 194.067Z" fill="#CE5B51"/>
<path d="M440.252 195.492C440.622 196.214 440.44 197.016 439.941 197.23C439.442 197.444 438.786 197.005 438.47 196.254C438.154 195.504 438.288 194.714 438.776 194.506C439.264 194.297 439.929 194.73 440.252 195.492Z" fill="#1A2E35"/>
<path d="M435.793 198.678C435.908 201.364 435.136 203.259 434.525 205.878C436.396 206.519 438.416 204.728 438.416 204.728L435.793 198.678Z" fill="#BB221F"/>
<path d="M441.951 192.629C441.803 192.736 441.607 192.744 441.45 192.652C440.402 192.013 439.111 191.914 437.979 192.386C437.743 192.508 437.453 192.416 437.331 192.18C437.21 191.944 437.302 191.654 437.538 191.533C437.538 191.533 437.539 191.533 437.539 191.532C438.958 190.908 440.593 191.013 441.921 191.814C442.151 191.944 442.233 192.237 442.103 192.468C442.073 192.537 442.019 192.594 441.951 192.629Z" fill="#1A2E35"/>
<path d="M432.114 198.479C432.491 199.214 432.295 200.019 431.809 200.229C431.321 200.438 430.655 200.005 430.333 199.242C430.01 198.481 430.145 197.719 430.643 197.505C431.142 197.29 431.786 197.734 432.114 198.479Z" fill="#1A2E35"/>
<path d="M427.923 195.971C427.827 195.981 427.73 195.959 427.646 195.91C427.449 195.729 427.433 195.422 427.61 195.222C428.642 194.038 430.189 193.438 431.747 193.614C432.006 193.663 432.179 193.907 432.143 194.167C432.099 194.429 431.851 194.606 431.59 194.562C431.59 194.562 431.59 194.562 431.589 194.562C430.367 194.459 429.17 194.95 428.371 195.882C428.245 195.981 428.078 196.014 427.923 195.971Z" fill="#1A2E35"/>
<path d="M122.765 520.97C123.019 520.954 123.216 520.739 123.209 520.483C122.659 498.601 121.529 462.705 121.471 462.507C121.396 462.257 121.131 462.118 120.88 462.187C120.628 462.262 120.485 462.527 120.559 462.778C120.572 462.827 121.712 498.847 122.259 520.507C122.265 520.771 122.483 520.978 122.745 520.971C122.752 520.971 122.759 520.971 122.765 520.97" fill="#1A2E35"/>
<path d="M125.706 447.898C125.523 449.584 123.505 455.426 121.819 455.244C120.134 455.06 119.419 448.92 119.602 447.234C119.786 445.549 121.301 444.33 122.986 444.514C124.671 444.698 125.89 446.212 125.706 447.898Z" fill="#007CFF"/>
<path d="M117.526 466.329C117.71 464.643 119.727 458.801 121.412 458.984C123.098 459.167 123.812 465.307 123.63 466.993C123.446 468.679 121.931 469.896 120.246 469.713C118.56 469.529 117.343 468.015 117.526 466.329Z" fill="#007CFF"/>
<path d="M130.832 461.203C129.146 461.02 123.304 459.003 123.486 457.316C123.67 455.631 129.81 454.916 131.496 455.1C133.181 455.284 134.398 456.798 134.216 458.484C134.032 460.17 132.517 461.387 130.832 461.203Z" fill="#007CFF"/>
<path d="M112.401 453.023C114.086 453.207 119.929 455.225 119.746 456.91C119.562 458.595 113.422 459.31 111.737 459.127C110.051 458.943 108.834 457.429 109.017 455.743C109.201 454.058 110.715 452.839 112.401 453.023Z" fill="#007CFF"/>
<path d="M131.025 453.49C129.704 454.552 124.145 457.256 123.082 455.935C122.02 454.614 125.857 449.766 127.178 448.704C128.5 447.642 130.432 447.851 131.494 449.174C132.556 450.495 132.346 452.427 131.025 453.49Z" fill="#007CFF"/>
<path d="M112.208 460.738C113.529 459.676 119.088 456.972 120.149 458.293C121.212 459.613 117.375 464.461 116.055 465.524C114.733 466.586 112.8 466.376 111.739 465.053C110.676 463.732 110.887 461.8 112.208 460.738Z" fill="#007CFF"/>
<path d="M125.241 466.522C124.178 465.201 121.474 459.642 122.795 458.581C124.117 457.518 128.963 461.354 130.026 462.675C131.089 463.997 130.878 465.93 129.557 466.993C128.235 468.053 126.302 467.843 125.241 466.522Z" fill="#007CFF"/>
<path d="M117.992 447.706C119.053 449.026 121.759 454.584 120.437 455.647C119.116 456.71 114.269 452.874 113.207 451.552C112.144 450.231 112.355 448.298 113.676 447.235C114.997 446.174 116.931 446.384 117.992 447.706Z" fill="#007CFF"/>
<g opacity="0.600006">
<path d="M125.706 447.898C125.523 449.584 123.505 455.426 121.819 455.244C120.134 455.06 119.419 448.92 119.602 447.234C119.786 445.549 121.301 444.33 122.986 444.514C124.671 444.698 125.89 446.212 125.706 447.898Z" fill="white"/>
<path d="M117.526 466.329C117.71 464.643 119.727 458.801 121.412 458.984C123.098 459.167 123.812 465.307 123.63 466.993C123.446 468.679 121.931 469.896 120.246 469.713C118.56 469.529 117.343 468.015 117.526 466.329Z" fill="white"/>
<path d="M130.832 461.203C129.146 461.02 123.304 459.003 123.486 457.316C123.67 455.631 129.81 454.916 131.496 455.1C133.181 455.284 134.398 456.798 134.216 458.484C134.032 460.17 132.517 461.387 130.832 461.203Z" fill="white"/>
<path d="M112.401 453.023C114.086 453.207 119.929 455.225 119.746 456.91C119.562 458.595 113.422 459.31 111.737 459.127C110.051 458.943 108.834 457.429 109.017 455.743C109.201 454.058 110.715 452.839 112.401 453.023Z" fill="white"/>
<path d="M131.025 453.49C129.704 454.552 124.145 457.256 123.082 455.935C122.02 454.614 125.857 449.766 127.178 448.704C128.5 447.642 130.432 447.851 131.494 449.174C132.556 450.495 132.346 452.427 131.025 453.49Z" fill="white"/>
<path d="M112.208 460.738C113.529 459.676 119.088 456.972 120.149 458.293C121.212 459.613 117.375 464.461 116.055 465.524C114.733 466.586 112.8 466.376 111.739 465.053C110.676 463.732 110.887 461.8 112.208 460.738Z" fill="white"/>
<path d="M125.241 466.522C124.178 465.201 121.474 459.642 122.795 458.581C124.117 457.518 128.963 461.354 130.026 462.675C131.089 463.997 130.878 465.93 129.557 466.993C128.235 468.053 126.302 467.843 125.241 466.522Z" fill="white"/>
<path d="M117.992 447.706C119.053 449.026 121.759 454.584 120.437 455.647C119.116 456.71 114.269 452.874 113.207 451.552C112.144 450.231 112.355 448.298 113.676 447.235C114.997 446.174 116.931 446.384 117.992 447.706Z" fill="white"/>
</g>
<path d="M125.23 457.507C125.013 459.503 123.219 460.945 121.223 460.728C119.227 460.511 117.785 458.717 118.002 456.721C118.219 454.724 120.013 453.283 122.009 453.5C124.006 453.716 125.447 455.511 125.23 457.507Z" fill="#007CFF"/>
<path d="M124.873 504.936C129.067 505.028 136.245 501.153 139.069 497.371C141.935 493.533 133.898 495.896 134.731 492.879C135.566 489.86 145.459 492.123 147.299 487.8C149.139 483.48 141.993 484.455 142.283 482.243C142.573 480.032 149.971 480.504 152.361 475.912C154.75 471.321 148.233 473.879 149.261 471.975C150.289 470.073 158.47 462.075 155.061 460.393C151.651 458.711 143.978 467.043 141.413 467.967C138.847 468.893 138.265 463.12 134.923 465.871C131.581 468.621 134.041 480.691 130.111 482.272C127.183 483.449 128.443 477.929 125.074 479.313C119.174 481.736 123.17 504.9 124.873 504.936Z" fill="#007CFF"/>
<g opacity="0.199997">
<path d="M124.873 504.936C129.067 505.028 136.245 501.153 139.069 497.371C141.935 493.533 133.898 495.896 134.731 492.879C135.566 489.86 145.459 492.123 147.299 487.8C149.139 483.48 141.993 484.455 142.283 482.243C142.573 480.032 149.971 480.504 152.361 475.912C154.75 471.321 148.233 473.879 149.261 471.975C150.289 470.073 158.47 462.075 155.061 460.393C151.651 458.711 143.978 467.043 141.413 467.967C138.847 468.893 138.265 463.12 134.923 465.871C131.581 468.621 134.041 480.691 130.111 482.272C127.183 483.449 128.443 477.929 125.074 479.313C119.174 481.736 123.17 504.9 124.873 504.936Z" fill="white"/>
</g>
<path d="M118.844 499.613C118.773 499.732 119.401 500.327 117.331 500.412C112.231 500.621 103.211 500.277 99.824 495.64C94.988 489.019 106.141 489.627 105.056 485.975C103.972 482.323 91.9893 485.305 89.6507 480.092C87.312 474.88 96.0267 475.897 95.6227 473.215C95.2187 470.533 86.076 474.008 83.0627 468.479C80.048 462.951 88.036 465.909 86.7413 463.617C85.448 461.327 75.308 451.791 79.416 449.664C83.5227 447.539 93.052 457.495 96.1933 458.56C99.336 459.625 100.063 449.861 104.193 453.128C108.323 456.396 105.612 471.136 110.429 472.967C114.017 474.329 112.06 469.045 116.487 469.249C122.501 469.525 124.48 490.193 118.844 499.613Z" fill="#007CFF"/>
<g opacity="0.300003">
<path d="M118.844 499.613C118.773 499.732 119.401 500.327 117.331 500.412C112.231 500.621 103.211 500.277 99.824 495.64C94.988 489.019 106.141 489.627 105.056 485.975C103.972 482.323 91.9893 485.305 89.6507 480.092C87.312 474.88 96.0267 475.897 95.6227 473.215C95.2187 470.533 86.076 474.008 83.0627 468.479C80.048 462.951 88.036 465.909 86.7413 463.617C85.448 461.327 75.308 451.791 79.416 449.664C83.5227 447.539 93.052 457.495 96.1933 458.56C99.336 459.625 100.063 449.861 104.193 453.128C108.323 456.396 105.612 471.136 110.429 472.967C114.017 474.329 112.06 469.045 116.487 469.249C122.501 469.525 124.48 490.193 118.844 499.613Z" fill="white"/>
</g>
<path d="M122.667 517.664C122.675 517.664 122.684 517.663 122.694 517.661C122.875 517.64 123.004 517.475 122.983 517.293C118.796 483.031 99.0603 469.104 98.8616 468.968C98.7109 468.864 98.5043 468.903 98.4003 469.053C98.2976 469.204 98.3349 469.412 98.4856 469.515C98.6829 469.649 118.176 483.425 122.324 517.372C122.346 517.545 122.496 517.672 122.667 517.664Z" fill="#1A2E35"/>
<path d="M103.353 473.728C103.487 473.723 103.611 473.635 103.655 473.499C103.711 473.325 103.617 473.139 103.442 473.081C103.319 473.041 100.381 472.112 95.5659 473.135C95.3859 473.172 95.2712 473.348 95.3099 473.528C95.3472 473.705 95.5232 473.821 95.7032 473.783C100.33 472.803 103.209 473.703 103.238 473.712C103.275 473.725 103.315 473.729 103.353 473.728Z" fill="#1A2E35"/>
<path d="M107.001 477.889C107.176 477.883 107.317 477.74 107.318 477.561C107.421 467.199 101.422 459.104 101.362 459.024C101.252 458.876 101.044 458.848 100.897 458.957C100.752 459.068 100.721 459.276 100.832 459.421C100.89 459.501 106.754 467.424 106.656 477.555C106.653 477.739 106.801 477.888 106.984 477.889C106.989 477.891 106.996 477.889 107.001 477.889Z" fill="#1A2E35"/>
<path d="M112.879 486.66C112.961 486.656 113.044 486.623 113.105 486.556C113.232 486.423 113.225 486.213 113.093 486.087C113.048 486.045 108.607 481.94 102.793 484.023C102.621 484.085 102.531 484.275 102.592 484.448C102.655 484.62 102.844 484.711 103.017 484.648C108.453 482.697 112.596 486.529 112.637 486.571C112.705 486.632 112.793 486.663 112.879 486.66Z" fill="#1A2E35"/>
<path d="M115.951 492.777C116.075 492.772 116.191 492.697 116.243 492.577C116.336 492.359 118.509 487.148 117.312 479.727C117.283 479.545 117.119 479.42 116.931 479.452C116.751 479.48 116.628 479.651 116.656 479.832C117.823 487.055 115.655 492.264 115.632 492.316C115.561 492.484 115.639 492.68 115.808 492.751C115.853 492.771 115.903 492.78 115.951 492.777Z" fill="#1A2E35"/>
<path d="M122.533 529.902C122.705 529.896 122.845 529.757 122.851 529.582L123.281 520.506C124.551 490.333 145.248 469.812 145.457 469.606C145.588 469.48 145.591 469.269 145.463 469.138C145.335 469.006 145.124 469.005 144.995 469.132C144.783 469.337 123.899 490.036 122.619 520.484L122.188 529.561C122.183 529.744 122.325 529.897 122.509 529.902C122.517 529.904 122.525 529.902 122.533 529.902Z" fill="#1A2E35"/>
<path d="M136.921 480.943C136.939 480.941 136.957 480.94 136.975 480.935C137.003 480.929 137.039 480.915 137.071 480.899L137.179 480.856C139.889 479.731 142.917 479.145 145.702 479.207C145.889 479.216 146.037 479.065 146.041 478.881C146.045 478.699 145.899 478.547 145.717 478.543C142.839 478.481 139.718 479.081 136.925 480.243L136.814 480.288C136.794 480.296 136.775 480.304 136.757 480.315C136.627 480.381 136.551 480.528 136.583 480.679C136.617 480.84 136.762 480.949 136.921 480.943Z" fill="#1A2E35"/>
<path d="M133.994 484.828C133.999 484.828 134.004 484.828 134.01 484.827C134.192 484.811 134.327 484.649 134.311 484.467C133.51 475.561 138.122 468.235 138.168 468.161C138.267 468.007 138.222 467.801 138.068 467.703C137.912 467.604 137.708 467.649 137.61 467.803C137.562 467.877 132.827 475.388 133.65 484.527C133.666 484.703 133.819 484.836 133.994 484.828Z" fill="#1A2E35"/>
<path d="M130.974 489.987C131.055 489.984 131.135 489.951 131.196 489.89C131.23 489.855 134.59 486.538 139.508 487.848C139.687 487.898 139.867 487.791 139.915 487.614C139.962 487.436 139.856 487.255 139.679 487.208C134.378 485.792 130.87 489.275 130.724 489.423C130.595 489.554 130.596 489.763 130.727 489.892C130.795 489.959 130.884 489.991 130.974 489.987Z" fill="#1A2E35"/>
<path d="M127.14 498.49C127.188 498.488 127.234 498.475 127.28 498.454C127.442 498.367 127.505 498.167 127.42 498.006C127.397 497.962 125.12 493.508 125.64 487.086C125.653 486.904 125.518 486.743 125.334 486.73C125.152 486.707 124.993 486.851 124.977 487.032C124.442 493.656 126.734 498.126 126.833 498.312C126.894 498.43 127.016 498.495 127.14 498.49Z" fill="#1A2E35"/>
<path d="M103.873 531.332C103.873 541.915 108.633 550.499 123.049 550.499C136.806 550.499 142.223 541.915 142.223 531.332C142.223 527.34 140.998 523.627 138.91 520.557H107.186C105.098 523.627 103.873 527.34 103.873 531.332Z" fill="#1A2E35"/>
</g>
<defs>
<clipPath id="clip0_1_2">
<rect width="666.667" height="666.667" fill="white"/>
</clipPath>
</defs>
</svg>
