<svg xmlns="http://www.w3.org/2000/svg" viewBox="0 0 500 500">
  <path style="fill:#ebebeb" d="M0 382.4h500v.25H0zM435 398.49h14.9v.25H435zM322.53 401.21h8.69v.25h-8.69zM396.59 389.21h34.19v.25h-34.19zM66.44 394.37h43.19v.25H66.44zM118.53 394.37h15.58v.25h-15.58zM161.08 391.01h93.68v.25h-93.68zM237 337.8H43.91a5.71 5.71 0 0 1-5.7-5.71V60.66a5.71 5.71 0 0 1 5.7-5.66H237a5.71 5.71 0 0 1 5.71 5.71v271.38a5.71 5.71 0 0 1-5.71 5.71ZM43.91 55.2a5.46 5.46 0 0 0-5.45 5.46v271.43a5.46 5.46 0 0 0 5.45 5.46H237a5.47 5.47 0 0 0 5.46-5.46V60.66A5.47 5.47 0 0 0 237 55.2ZM453.31 337.8h-193.1a5.72 5.72 0 0 1-5.71-5.71V60.66a5.72 5.72 0 0 1 5.71-5.66h193.1a5.71 5.71 0 0 1 5.69 5.66v271.43a5.71 5.71 0 0 1-5.69 5.71ZM260.21 55.2a5.47 5.47 0 0 0-5.46 5.46v271.43a5.47 5.47 0 0 0 5.46 5.46h193.1a5.47 5.47 0 0 0 5.46-5.46V60.66a5.47 5.47 0 0 0-5.46-5.46Z"/>
  <path style="fill:#e0e0e0" d="M74.57 116h94.67v266.4H74.57z"/>
  <path transform="rotate(180 294.74 249.2)" style="fill:#f5f5f5" d="M169.24 116h251.01v266.4H169.24z"/>
  <path style="fill:#ebebeb" d="M64.57 149.33h114.67V156H64.57z"/>
  <path transform="rotate(180 304.74 152.665)" style="fill:#e0e0e0" d="M179.24 149.33h251.01V156H179.24z"/>
  <path style="fill:#ebebeb" d="M64.57 189.33h114.67V196H64.57z"/>
  <path transform="rotate(180 304.74 192.665)" style="fill:#e0e0e0" d="M179.24 189.33h251.01V196H179.24z"/>
  <path style="fill:#ebebeb" d="M64.57 229.33h114.67V236H64.57z"/>
  <path transform="rotate(180 304.74 232.665)" style="fill:#e0e0e0" d="M179.24 229.33h251.01V236H179.24z"/>
  <path style="fill:#ebebeb" d="M64.57 269.33h114.67V276H64.57z"/>
  <path transform="rotate(180 304.74 272.665)" style="fill:#e0e0e0" d="M179.24 269.33h251.01V276H179.24z"/>
  <path style="fill:#ebebeb" d="M64.57 309.33h114.67V316H64.57z"/>
  <path transform="rotate(180 304.74 312.665)" style="fill:#e0e0e0" d="M179.24 309.33h251.01V316H179.24z"/>
  <path style="fill:#ebebeb" d="M64.57 349.33h114.67V356H64.57z"/>
  <path transform="rotate(180 304.74 352.665)" style="fill:#e0e0e0" d="M179.24 349.33h251.01V356H179.24z"/>
  <path style="fill:#f5f5f5" d="M101.13 35h144v71h-144z"/>
  <path style="fill:#e0e0e0" d="M167.01 106h12.22v10h-12.22z"/>
  <path style="fill:#f0f0f0" d="M101.13 98.28h144V106h-144zM101.13 35h144v7.72h-144z"/>
  <path style="fill:#f5f5f5" d="M304.74 64.6h71.39v45.06h-71.39z"/>
  <path style="fill:#e0e0e0" d="M336.55 109.65h7.76V116h-7.76z"/>
  <path style="fill:#f0f0f0" d="M304.74 104.76h71.39v4.9h-71.39zM304.74 64.6h71.39v4.9h-71.39z"/>
  <path style="fill:#e6e6e6" d="M356.63 124.08h25.25v25.25h-25.25z"/>
  <path transform="rotate(180 394.085 136.71)" style="fill:#fff" d="M381.88 124.08h24.42v25.25h-24.42z"/>
  <path style="fill:#e6e6e6" d="M326.63 124.08h25.25v25.25h-25.25z"/>
  <path transform="rotate(180 364.085 136.71)" style="fill:#fff" d="M351.88 124.08h24.42v25.25h-24.42z"/>
  <path style="fill:#e6e6e6" d="M296.63 124.08h25.25v25.25h-25.25z"/>
  <path transform="rotate(180 334.085 136.71)" style="fill:#fff" d="M321.88 124.08h24.42v25.25h-24.42z"/>
  <path style="fill:#e6e6e6" d="M266.63 124.08h25.25v25.25h-25.25z"/>
  <path transform="rotate(180 304.085 136.71)" style="fill:#fff" d="M291.88 124.08h24.42v25.25h-24.42z"/>
  <path transform="rotate(180 97.805 176.055)" style="fill:#f0f0f0" d="M92.52 162.77h10.58v26.56H92.52z"/>
  <path style="fill:#fff" d="M82.29 162.77h10.23v26.56H82.29z"/>
  <path transform="rotate(180 110.37 176.055)" style="fill:#f0f0f0" d="M105.08 162.77h10.58v26.56h-10.58z"/>
  <path style="fill:#fff" d="M94.85 162.77h10.23v26.56H94.85z"/>
  <path transform="rotate(180 122.935 176.055)" style="fill:#f0f0f0" d="M117.65 162.77h10.58v26.56h-10.58z"/>
  <path style="fill:#fff" d="M107.42 162.77h10.23v26.56h-10.23z"/>
  <path transform="rotate(180 135.505 176.055)" style="fill:#f0f0f0" d="M130.21 162.77h10.58v26.56h-10.58z"/>
  <path style="fill:#fff" d="M119.99 162.77h10.23v26.56h-10.23z"/>
  <path transform="rotate(180 108.29 300.39)" style="fill:#f0f0f0" d="M101.17 291.44h14.24v17.89h-14.24z"/>
  <path style="fill:#fff" d="M87.4 291.44h13.77v17.89H87.4z"/>
  <path transform="rotate(180 125.21 300.39)" style="fill:#f0f0f0" d="M118.09 291.44h14.24v17.89h-14.24z"/>
  <path style="fill:#fff" d="M104.32 291.44h13.77v17.89h-13.77z"/>
  <path transform="rotate(180 142.13 300.39)" style="fill:#f0f0f0" d="M135.01 291.44h14.24v17.89h-14.24z"/>
  <path style="fill:#fff" d="M121.24 291.44h13.77v17.89h-13.77z"/>
  <path transform="rotate(180 159.045 300.39)" style="fill:#f0f0f0" d="M151.93 291.44h14.24v17.89h-14.24z"/>
  <path style="fill:#fff" d="M138.16 291.44h13.77v17.89h-13.77z"/>
  <path style="fill:#e6e6e6" d="M372.6 204.08h13.99v25.25H372.6z"/>
  <path transform="rotate(180 393.36 216.71)" style="fill:#fff" d="M386.59 204.08h13.53v25.25h-13.53z"/>
  <path style="fill:#e6e6e6" d="M355.97 204.08h13.99v25.25h-13.99z"/>
  <path transform="rotate(180 376.73 216.71)" style="fill:#fff" d="M369.97 204.08h13.53v25.25h-13.53z"/>
  <path style="fill:#e6e6e6" d="M339.34 204.08h13.99v25.25h-13.99z"/>
  <path transform="rotate(180 360.105 216.71)" style="fill:#fff" d="M353.34 204.08h13.53v25.25h-13.53z"/>
  <path style="fill:#e6e6e6" d="M322.72 204.08h13.99v25.25h-13.99z"/>
  <path transform="rotate(180 343.48 216.71)" style="fill:#fff" d="M336.71 204.08h13.53v25.25h-13.53z"/>
  <path style="fill:#e6e6e6" d="M286.34 204.08h13.99v25.25h-13.99z"/>
  <path transform="rotate(180 307.1 216.71)" style="fill:#fff" d="M300.33 204.08h13.53v25.25h-13.53z"/>
  <path style="fill:#e6e6e6" d="M269.71 204.08h13.99v25.25h-13.99z"/>
  <path transform="rotate(180 290.475 216.71)" style="fill:#fff" d="M283.71 204.08h13.53v25.25h-13.53z"/>
  <path style="fill:#e6e6e6" d="M253.09 204.08h13.99v25.25h-13.99z"/>
  <path transform="rotate(180 273.845 216.71)" style="fill:#fff" d="M267.08 204.08h13.53v25.25h-13.53z"/>
  <path style="fill:#e6e6e6" d="M236.46 204.08h13.99v25.25h-13.99z"/>
  <path transform="rotate(180 257.22 216.71)" style="fill:#fff" d="M250.45 204.08h13.53v25.25h-13.53z"/>
  <path style="fill:#e6e6e6" d="M329.69 291.45h34.1v17.83h-34.1z"/>
  <path transform="rotate(180 380.27 300.36)" style="fill:#fff" d="M363.78 291.45h32.97v17.83h-32.97z"/>
  <path style="fill:#e6e6e6" d="M289.17 291.45h34.1v17.83h-34.1z"/>
  <path transform="rotate(180 339.76 300.36)" style="fill:#fff" d="M323.27 291.45h32.97v17.83h-32.97z"/>
  <path style="fill:#e6e6e6" d="M248.66 291.45h34.1v17.83h-34.1z"/>
  <path transform="rotate(180 299.245 300.36)" style="fill:#fff" d="M282.76 291.45h32.97v17.83h-32.97z"/>
  <path style="fill:#e6e6e6" d="M208.15 291.45h34.1v17.83h-34.1z"/>
  <path transform="rotate(180 258.735 300.36)" style="fill:#fff" d="M242.25 291.45h32.97v17.83h-32.97z"/>
  <circle cx="208.71" cy="178.08" r="11.25" style="fill:#e6e6e6"/>
  <circle cx="238.71" cy="178.08" r="11.25" style="fill:#e6e6e6"/>
  <circle cx="268.71" cy="178.08" r="11.25" style="fill:#e6e6e6"/>
  <circle cx="298.71" cy="178.08" r="11.25" style="fill:#e6e6e6"/>
  <circle cx="88.19" cy="261.92" r="7.42" transform="rotate(-13.28 88.218 261.978)" style="fill:#e6e6e6"/>
  <circle cx="107.97" cy="261.92" r="7.42" transform="rotate(-13.28 107.982 261.972)" style="fill:#e6e6e6"/>
  <circle cx="127.75" cy="261.92" r="7.42" transform="rotate(-67.5 127.748 261.918)" style="fill:#e6e6e6"/>
  <circle cx="147.52" cy="261.92" r="7.42" transform="rotate(-45 147.528 261.912)" style="fill:#e6e6e6"/>
  <circle cx="332.88" cy="341.63" r="7.71" transform="rotate(-67.5 332.885 341.63)" style="fill:#fff"/>
  <circle cx="353.43" cy="341.63" r="7.71" transform="matrix(.97 -.23 .23 .97 -69.04 90.34)" style="fill:#fff"/>
  <circle cx="373.98" cy="341.63" r="7.71" transform="rotate(-67.5 373.983 341.631)" style="fill:#fff"/>
  <circle cx="394.53" cy="341.63" r="7.71" transform="rotate(-67.5 394.531 341.625)" style="fill:#fff"/>
  <circle cx="343.46" cy="330.87" r="7.71" transform="rotate(-45 343.459 330.865)" style="fill:#fff"/>
  <circle cx="364.01" cy="330.87" r="7.71" transform="rotate(-67.5 364.01 330.865)" style="fill:#fff"/>
  <circle cx="384.56" cy="330.87" r="7.71" transform="matrix(.97 -.23 .23 .97 -65.73 97.2)" style="fill:#fff"/>
  <circle cx="233.1" cy="341.63" r="7.71" transform="rotate(-45 233.106 341.625)" style="fill:#fff"/>
  <circle cx="253.65" cy="341.63" r="7.71" transform="rotate(-67.5 253.654 341.63)" style="fill:#fff"/>
  <circle cx="274.2" cy="341.63" r="7.71" transform="rotate(-13.28 274.274 341.667)" style="fill:#fff"/>
  <circle cx="294.75" cy="341.63" r="7.71" transform="rotate(-67.5 294.745 341.626)" style="fill:#fff"/>
  <circle cx="243.68" cy="330.87" r="7.71" transform="rotate(-67.5 243.676 330.872)" style="fill:#fff"/>
  <circle cx="264.23" cy="330.87" r="7.71" transform="rotate(-45 264.232 330.872)" style="fill:#fff"/>
  <circle cx="284.78" cy="330.87" r="7.71" transform="rotate(-67.5 284.774 330.872)" style="fill:#fff"/>
  <path style="fill:#e0e0e0" d="m376.96 249.2 5.65 20.13h-29.6l23.95-20.13z"/>
  <path style="fill:#fff" d="m376.96 249.2-10.29 20.13h31.23l-20.94-20.13z"/>
  <path style="fill:#e0e0e0" d="m330.15 249.2 5.65 20.13h-29.61l23.96-20.13z"/>
  <path style="fill:#fff" d="m330.15 249.2-10.29 20.13h31.23l-20.94-20.13z"/>
  <path style="fill:#e0e0e0" d="m283.33 249.2 5.66 20.13h-29.61l23.95-20.13z"/>
  <path style="fill:#fff" d="m283.33 249.2-10.29 20.13h31.24l-20.95-20.13z"/>
  <path style="fill:#f5f5f5" d="m90.7 209.78-3.15 19.55h16.51L90.7 209.78z"/>
  <path style="fill:#fff" d="m90.7 209.78 5.74 19.55H79.02l11.68-19.55z"/>
  <path style="fill:#f5f5f5" d="m116.81 209.78-3.15 19.55h16.51l-13.36-19.55z"/>
  <path style="fill:#fff" d="m116.81 209.78 5.74 19.55h-17.42l11.68-19.55z"/>
  <path style="fill:#f5f5f5" d="m142.92 209.78-3.16 19.55h16.52l-13.36-19.55z"/>
  <path style="fill:#fff" d="m142.92 209.78 5.74 19.55h-17.42l11.68-19.55z"/>
  <path style="fill:#e0e0e0" d="m236.52 249.2 5.65 20.13h-29.6l23.95-20.13z"/>
  <path style="fill:#fff" d="m236.52 249.2-10.29 20.13h31.24l-20.95-20.13z"/>
  <g>
    <ellipse cx="250" cy="416.24" rx="193.89" ry="11.32" style="fill:#f5f5f5"/>
  </g>
  <g>
    <path d="M292 285.69h82.79a6.37 6.37 0 0 1 6.37 6.37 6.37 6.37 0 0 1-6.37 6.37H292Z" style="fill:#407bff"/>
    <path d="M292 285.69h82.79a6.37 6.37 0 0 1 6.37 6.37 6.37 6.37 0 0 1-6.37 6.37H292Z" style="fill:#fff;opacity:.6000000000000001"/>
    <circle cx="366.68" cy="245.97" r="9.57" transform="rotate(-76.72 366.668 245.968)" style="fill:#407bff"/>
    <circle cx="366.68" cy="245.97" r="9.57" transform="rotate(-76.72 366.668 245.968)" style="fill:#fff;opacity:.8"/>
    <path style="fill:#263238" d="M300.81 247.25h79.11l-7.58 38.44h-63.96l-7.57-38.44z"/>
    <path d="M298.6 243.56h83.52a1.18 1.18 0 0 1 1.14 1.51l-1 3.41a1.19 1.19 0 0 1-1.14.85h-81.53a1.19 1.19 0 0 1-1.14-.85l-1-3.41a1.18 1.18 0 0 1 1.15-1.51Z" style="fill:#407bff"/>
    <path d="M298.6 243.56h83.52a1.18 1.18 0 0 1 1.14 1.51l-1 3.41a1.19 1.19 0 0 1-1.14.85h-81.53a1.19 1.19 0 0 1-1.14-.85l-1-3.41a1.18 1.18 0 0 1 1.15-1.51Z" style="fill:#fff;opacity:.6000000000000001"/>
    <path style="fill:#407bff" d="M308.53 239h38v4.56h-38z"/>
    <path style="opacity:.2" d="M308.53 239h38v4.56h-38z"/>
    <path d="M330.36 251.88a1.23 1.23 0 0 1-1.33.84c-3-.51-4.48-3.24-3.39-6.53l7.65-23.09c1.21-3.65 5.16-6.61 8.8-6.61h13.55c3.64 0 5.62 3 4.42 6.61l-6.79 20.46H351l6.78-20.46c.8-2.39-.5-4.34-2.89-4.34h-13.55a6.61 6.61 0 0 0-5.78 4.34l-7.65 23.09c-.65 1.95.1 3.61 1.69 4.15a1.21 1.21 0 0 1 .76 1.54Z" style="fill:#407bff"/>
    <rect x="171.34" y="240.62" width="146.1" height="175.62" rx="8.65" style="fill:#407bff"/>
    <path d="M206.9 306.22h-120a6.38 6.38 0 0 0-6.37 6.38 6.37 6.37 0 0 0 6.37 6.4h120Z" style="fill:#407bff"/>
    <path style="fill:#263238;opacity:.30000000000000004" d="m206.9 322.5-35.41 16.03v-19.57h35.41v3.54z"/>
    <path d="M206.9 306.22h-76.43a6.38 6.38 0 0 0-6.37 6.38 6.38 6.38 0 0 0 6.37 6.37h76.43Z" style="fill:#fff;opacity:.7000000000000001"/>
    <rect x="211.24" y="240.62" width="106.2" height="175.62" rx="8.65" style="fill:#fff;opacity:.7000000000000001"/>
    <path style="fill:#407bff" d="M127.94 318.97h10.85v97.27h-10.85z"/>
    <path style="fill:#fff;opacity:.7000000000000001" d="M127.94 318.97h10.85v97.27h-10.85z"/>
    <path style="fill:#407bff;opacity:.30000000000000004" d="m138.79 323.19-10.85 2.35v-6.58h10.85v4.23z"/>
    <rect x="221.18" y="261.38" width="86.31" height="32.73" rx="2.47" style="fill:#407bff;opacity:.30000000000000004"/>
    <path style="fill:#407bff" d="M159.49 223.41h-59.3l-6.01 82.82h71.32l-6.01-82.82z"/>
    <path style="fill:#263238;opacity:.30000000000000004" d="M108.06 223.41h-7.87l-6.01 82.82h15.96l-2.08-82.82z"/>
    <path d="M133.45 233.51c-5.54 0-10.5-3.89-11.33-9.07a9.19 9.19 0 0 1 1.84-7.15 10.64 10.64 0 0 1 7.47-3.93c5.95-.54 11.51 3.51 12.39 9a9.21 9.21 0 0 1-1.85 7.16 10.6 10.6 0 0 1-7.46 3.93c-.36.04-.71.06-1.06.06Zm-.95-18.44h-.91a8.91 8.91 0 0 0-6.24 3.26 7.46 7.46 0 0 0-1.49 5.8c.73 4.61 5.44 8 10.49 7.54a8.91 8.91 0 0 0 6.24-3.26 7.46 7.46 0 0 0 1.49-5.8c-.69-4.29-4.89-7.54-9.58-7.54Z" style="fill:#407bff"/>
    <path d="M129 233.51h-1.06a10.6 10.6 0 0 1-7.46-3.93 9.16 9.16 0 0 1-1.84-7.16c.87-5.5 6.43-9.55 12.38-9a10.62 10.62 0 0 1 7.47 3.93 9.15 9.15 0 0 1 1.84 7.15c-.86 5.12-5.83 9.01-11.33 9.01Zm1-18.44c-4.7 0-8.9 3.25-9.59 7.58a7.46 7.46 0 0 0 1.49 5.8 8.91 8.91 0 0 0 6.24 3.26c5.05.45 9.76-2.93 10.5-7.54a7.42 7.42 0 0 0-1.5-5.8 8.89 8.89 0 0 0-6.23-3.26c-.39-.03-.69-.04-.99-.04ZM218.41 110.56h17.6v130.07h-17.6z" style="fill:#407bff"/>
    <path style="fill:#263238;opacity:.30000000000000004" d="M236.01 180.2h-17.6v33.99l17.6-2.17V180.2zM236.01 111.45h-17.6v9.89l17.6-2.17v-7.72z"/>
    <path d="m181.25 204.39-4.91-71.25a4.39 4.39 0 0 1 4.38-4.69h109.41a4.38 4.38 0 0 1 4.38 4.08l4.9 71.25a4.38 4.38 0 0 1-4.38 4.69H185.62a4.37 4.37 0 0 1-4.37-4.08Z" style="fill:#263238"/>
    <path d="M288.87 131.7H182.16a2.48 2.48 0 0 0-2.47 2.65l4.72 68.56a2.48 2.48 0 0 0 2.47 2.31h106.71a2.48 2.48 0 0 0 2.48-2.65L291.35 134a2.48 2.48 0 0 0-2.48-2.3Z" style="fill:#407bff"/>
    <path d="M288.87 131.7H182.16a2.48 2.48 0 0 0-2.47 2.65l4.72 68.56a2.48 2.48 0 0 0 2.47 2.31h106.71a2.48 2.48 0 0 0 2.48-2.65L291.35 134a2.48 2.48 0 0 0-2.48-2.3Z" style="fill:#fff;opacity:.8"/>
    <path style="fill:#263238" d="M196.29 238.24h93.66v2.38h-93.66z"/>
    <path style="fill:#407bff;opacity:.30000000000000004" d="M263.88 197.19H193.4l-3.91-56.76h70.48l3.91 56.76zM284.03 145.51h-18.99l-.35-5.08h18.99l.35 5.08zM285.43 165.98h-18.99l-.99-14.48h18.99l.99 14.48z"/>
    <path style="fill:#407bff" d="M208.98 90.11h35.41v26.43h-35.41z"/>
    <path style="fill:#263238;opacity:.30000000000000004" d="M208.98 90.11h14.73v26.43h-14.73z"/>
  </g>
  <g>
    <path d="m320.8 203.81 1.95-2.49a3.67 3.67 0 0 1 3.07-1.4l5.56.25a6.91 6.91 0 0 1 5.46 3.15l.74 1.16c-3 4.35-9.37 6.87-9.37 6.87l-1.74.92a3.06 3.06 0 0 1-4.19-1.19l-1.87-3.44a3.52 3.52 0 0 1 .39-3.83Z" style="fill:#ff8b7b"/>
    <path d="M340.15 153.94c.58.71 1 1.21 1.42 1.81s.84 1.15 1.25 1.72c.82 1.16 1.57 2.34 2.32 3.52a83.56 83.56 0 0 1 4 7.38c.62 1.26 1.18 2.56 1.75 3.86s1.05 2.63 1.51 4a64.47 64.47 0 0 1 2.32 8.33l.11.46a4.47 4.47 0 0 1 .1 1 14.31 14.31 0 0 1-1 5.22 18.59 18.59 0 0 1-2.15 3.89 26.29 26.29 0 0 1-5.18 5.24 39.5 39.5 0 0 1-5.58 3.58 40.46 40.46 0 0 1-6 2.59 3.77 3.77 0 0 1-3.87-6.25l.25-.24c1.23-1.23 2.65-2.56 3.88-3.86a46.89 46.89 0 0 0 3.44-3.95 18 18 0 0 0 2.35-3.75c.5-1.12.44-2 .29-2l.21 1.42c-.75-2.16-1.55-4.3-2.52-6.43s-2-4.22-3.16-6.3-2.35-4.12-3.64-6.12c-.64-1-1.3-2-2-3l-1-1.44-.92-1.3-.24-.34a7.5 7.5 0 0 1 11.94-9.05Z" style="fill:#ff8b7b"/>
    <path d="M326.43 145.46c-2.82 6.4-2.64 14.39 6 26.61 5.74.63 16.36-6.83 16.36-6.83s-7.29-20.45-22.36-19.78Z" style="fill:#263238"/>
    <path d="M321.62 123.21c-1.67 6.2-3.73 17.56.29 21.69 0 0-5.87-.88-18.33 6.83-3.61-5.18-.93-6.83-.93-6.83 7-1.65 7.24-6.77 6.39-11.59Z" style="fill:#ff8b7b"/>
    <path d="M296.26 149.51c1.85-4 6.21-7.81 9.22-7.24s4.84 1.51 6.62 0 6.18-3.71 8.42-1.22c3.15 3.48 7.92 1 6.12 4.81-1.94 4.14-30.38 3.65-30.38 3.65Z" style="fill:#407bff"/>
    <path d="M299.09 111.83c-.12.85-.66 1.51-1.2 1.47s-.88-.76-.76-1.61.66-1.5 1.2-1.46.89.77.76 1.6Z" style="fill:#263238"/>
    <path d="m298.56 110.29-1.9-.73s.79 1.66 1.9.73Z" style="fill:#263238"/>
    <path d="M298.91 113.43a25 25 0 0 1-3.74 5.19c.95 1.12 2.88.78 2.88.78Z" style="fill:#ff5652"/>
    <path d="M297.68 105.09a.5.5 0 0 1-.06-.36.51.51 0 0 1 .62-.33 5.2 5.2 0 0 1 3.6 2.92.44.44 0 0 1-.31.6.54.54 0 0 1-.65-.31 4.17 4.17 0 0 0-2.88-2.28.56.56 0 0 1-.32-.24Z" style="fill:#263238"/>
    <path d="M326.92 110.77c-1.89 10-2.47 14.27-8.18 19.07-8.59 7.23-20.4 3.41-21.52-6.8-1-9.18 2.23-24 12.54-27.31a13 13 0 0 1 17.16 15.04Z" style="fill:#ff8b7b"/>
    <path d="M304.5 114c-3.62-5.67-7.54-12.75-5.08-17.67s8.05-3.75 8.05-3.75S318.3 86.5 328 94.42c12.86 10.53-.93 22.12-4.34 32.16-3.77 11.05-23.21-2.33-19.16-12.58Z" style="fill:#263238"/>
    <path d="M359.92 95.62c-5.23-19.45-28.17-10.51-34.84 1l2.72.71c27.37-17.66 13.89 7.87 14.12 18.28s10.55 16.82 10.55 16.82 12.67-17.37 7.45-36.81Z" style="fill:#263238"/>
    <path d="M353 130c-2.92 0-7-.55-9.66-3.24-2.4-2.43-3.15-6.14-2.21-11 .3-1.54.78-3.35 1.28-5.26 1.58-6 3.55-13.38.45-16-2.18-1.85-6.77-1.2-13.65 1.91a.24.24 0 0 1-.33-.12.25.25 0 0 1 .13-.33c7.16-3.25 11.8-3.85 14.17-1.84 3.34 2.82 1.42 10.09-.28 16.51-.51 1.9-1 3.7-1.28 5.23-.9 4.72-.2 8.28 2.08 10.59 4.25 4.3 12.69 2.84 12.78 2.82a.25.25 0 1 1 .08.5 22.94 22.94 0 0 1-3.56.23Z" style="fill:#263238"/>
    <path d="M328.39 92.34c.25-1.27-2.95-.74-3.1.39s-.57.5-1.82 2.15-1.42 3.59 2.68 4.87c2.6.81 3-1.19 4.33-2.19.73-.54 1.55-.82 2.08-1.23a.83.83 0 0 0-.42-1.48c-1.68-.14-4.01-1.26-3.75-2.51Z" style="fill:#407bff"/>
    <path d="M306.34 117.56a7 7 0 0 1-4.42 3.54c-2.35.52-3.24-2.19-2.35-4.83.8-2.36 3-5.49 5.24-4.81s2.8 3.81 1.53 6.1Z" style="fill:#ff8b7b"/>
    <path d="M349.13 421.17c7.77-1.16 7.92-2.45 12.09-3.91 3.57-1.26 4.57-1.08 7.45-2.05 2.41-.81 1.59-3.1 0-5.54-.79-1.22-.91-2.38-1.78-4.55l-11.81 1.75c-1.14 3.3-1.55 7.52-8.29 9.93-4.01 1.44-.79 4.83 2.34 4.37ZM277.11 421.2c7.73 0 9.21-.51 13.56-.66 3.72-.13 4.33.66 8.1.66 2.5 0 2.85-2.82 1.93-4.93-.71-1.64-.82-3.61-1.34-5.74h-10.65c-1.92 3.37-7.16 5.87-13 6.29-4.2.31-1.71 4.38 1.4 4.38Z" style="fill:#263238"/>
    <path d="M286.14 210.63s-1.54 55.58 1.76 90.88c-.21 33.13.81 109 .81 109 .26 1.69 9.14 1 10.65 0 0 0 16.65-55.27 9.26-109 18.49-56.06 14.5-90.88 14.5-90.88Z" style="fill:#263238"/>
    <path d="M297.23 210.63s18.06 62.73 25.38 93.54c7.7 32.35 30.58 81.26 32.48 102.7 2 .79 8.39-.09 11.81-1.75 0 0-3.13-68.37-21.73-99.52 4.2-76.64-16.6-95-16.6-95Z" style="fill:#263238"/>
    <path d="M353.55 402.58a31.15 31.15 0 0 1 .23 4.43.93.93 0 0 0 .93 1c4.42 0 10.53-1.88 12.46-2.54a.9.9 0 0 0 .62-.85v-4.19a.93.93 0 0 0-1.08-.91l-12.44 2.09a.9.9 0 0 0-.72.97ZM287.49 405.86c0 1.15-.1 3.2-.21 4.71a1 1 0 0 0 .85 1 63.24 63.24 0 0 0 11.75-.13.86.86 0 0 0 .77-.7l.8-4.13a1 1 0 0 0-.91-1.13L288.4 405a.86.86 0 0 0-.91.86Z" style="fill:#407bff"/>
    <path d="M283.74 160.68a190.58 190.58 0 0 0 .28 19.41c.33 8.43.91 16.72 2.12 30.54h42.43c-.85-11.95.54-25.57 8.16-52.46a9.9 9.9 0 0 0-8.46-12.87c-1.68-.17-3.47-.31-5.3-.4a135.92 135.92 0 0 0-19.26 0c-2.1.19-4.27.46-6.34.75a16 16 0 0 0-13.63 15.03Z" style="fill:#263238"/>
    <path d="M328.36 205.38c-8.49 2.17-21.41 2.79-42.62.53.51 11.25-4.44 86.9-4.44 86.9s43 9.45 67.31-3.38c1.57-57.17-20.25-84.05-20.25-84.05Z" style="fill:#407bff"/>
    <path d="M312.13 251s11.67-10.87 17.43-18.29c-.46 7.78-7.41 14.76-17.43 18.29Z" style="opacity:.2"/>
    <path d="m247.75 160.62 2.82 1.43a3.68 3.68 0 0 1 2 2.74l.83 5.5a6.86 6.86 0 0 1-2 6l-1 1c-4.84-2.06-8.56-7.85-8.56-7.85l-1.24-1.53a3.06 3.06 0 0 1 .35-4.35l3-2.5a3.52 3.52 0 0 1 3.8-.44Z" style="fill:#ff8b7b"/>
    <path d="M298.4 161.62c-.31.86-.54 1.46-.81 2.15s-.56 1.31-.84 2c-.56 1.3-1.18 2.55-1.81 3.8a77.75 77.75 0 0 1-4.22 7.28c-.76 1.18-1.57 2.34-2.39 3.49s-1.7 2.27-2.63 3.36a62.67 62.67 0 0 1-5.92 6.3l-.28.27a5.1 5.1 0 0 1-.83.64 11.43 11.43 0 0 1-4 1.54 12.6 12.6 0 0 1-3.58.14 18.08 18.08 0 0 1-5.26-1.46 33 33 0 0 1-7.23-4.55 57.38 57.38 0 0 1-5.66-5.3 60.53 60.53 0 0 1-4.87-5.86 3.76 3.76 0 0 1 5.1-5.36l.17.11c1.86 1.21 3.83 2.53 5.75 3.71s3.86 2.33 5.76 3.3a26.3 26.3 0 0 0 5.36 2.17 4.07 4.07 0 0 0 1.67.16c.13 0 .12-.1 0-.1a1.56 1.56 0 0 0-.68.18l-1.1.92c1.46-1.76 2.88-3.56 4.19-5.49s2.58-3.91 3.75-6 2.31-4.15 3.36-6.29c.53-1.06 1-2.14 1.53-3.21l.71-1.6.64-1.45.17-.38a7.5 7.5 0 0 1 13.93 5.53Z" style="fill:#ff8b7b"/>
    <path d="M298.54 145.49c-6.93.9-13.67 5.2-19.64 18.94 2.44 5.24 14.32 10.47 14.32 10.47s13.7-16.9 5.32-29.41Z" style="fill:#263238"/>
  </g>
</svg>